<svg width="13" height="18" viewBox="0 0 13 18" fill="none" xmlns="http://www.w3.org/2000/svg">
<path d="M4.1753 1.4372C4.85153 1.99998 11.4586 7.91332 11.4586 7.91332C11.6298 8.0542 11.766 8.22306 11.859 8.4098C11.9521 8.59655 12 8.79736 12 9.00026C12 9.20315 11.9521 9.40398 11.859 9.59072C11.766 9.77747 11.6298 9.94632 11.4586 10.0872C11.4586 10.0872 4.85153 16.0033 4.1753 16.5633C3.49907 17.1261 2.28249 17.1647 1.56258 16.5633C0.841051 15.9647 0.784429 15.1274 1.56258 14.3922L7.62441 9.00164L1.56258 3.61107C0.784429 2.87587 0.841051 2.03722 1.56258 1.4372C2.28249 0.835795 3.49907 0.873037 4.1753 1.4372Z" fill="#69E8A3" stroke="#69E8A3"/>
</svg>
