<svg width="19" height="22" viewBox="0 0 19 22" fill="none" xmlns="http://www.w3.org/2000/svg">
<path fill-rule="evenodd" clip-rule="evenodd" d="M18.5325 11.2092C18.6584 11.3347 18.7583 11.4839 18.8265 11.6481C18.8946 11.8124 18.9297 11.9884 18.9297 12.1663C18.9297 12.3441 18.8946 12.5201 18.8265 12.6844C18.7583 12.8486 18.6584 12.9978 18.5325 13.1233L10.4216 21.2343C10.296 21.3602 10.1468 21.4601 9.9826 21.5282C9.81837 21.5964 9.6423 21.6315 9.46449 21.6315C9.28668 21.6315 9.11061 21.5964 8.94638 21.5282C8.78215 21.4601 8.63297 21.3602 8.5074 21.2343L0.396439 13.1233C0.142603 12.8695 -3.60437e-08 12.5252 -2.84913e-08 12.1663C-2.09389e-08 11.8073 0.142603 11.463 0.396439 11.2092C0.650276 10.9553 0.994553 10.8127 1.35353 10.8127C1.71251 10.8127 2.05679 10.9553 2.31063 11.2092L9.46449 18.3657L16.6184 11.2092C16.7439 11.0833 16.8931 10.9834 17.0573 10.9152C17.2216 10.8471 17.3976 10.812 17.5754 10.812C17.7533 10.812 17.9293 10.8471 18.0936 10.9152C18.2578 10.9834 18.407 11.0833 18.5325 11.2092Z" fill="white"/>
<path fill-rule="evenodd" clip-rule="evenodd" d="M9.46458 -1.22769e-07C9.82311 -9.02089e-08 10.1669 0.142424 10.4205 0.395941C10.674 0.649458 10.8164 0.993299 10.8164 1.35183L10.8164 18.9256C10.8164 19.2841 10.674 19.6279 10.4205 19.8815C10.1669 20.135 9.82311 20.2774 9.46458 20.2774C9.10605 20.2774 8.76221 20.135 8.50869 19.8815C8.25518 19.6279 8.11275 19.2841 8.11275 18.9256L8.11275 1.35183C8.11275 0.993299 8.25518 0.649457 8.50869 0.395941C8.76221 0.142424 9.10605 -1.5533e-07 9.46458 -1.22769e-07Z" fill="white"/>
</svg>
