<svg width="18" height="15" viewBox="0 0 18 15" fill="none" xmlns="http://www.w3.org/2000/svg">
<path fill-rule="evenodd" clip-rule="evenodd" d="M8.88209 0.314703C8.98159 0.214947 9.0998 0.1358 9.22994 0.0817982C9.36008 0.0277962 9.49959 0 9.64049 0C9.78139 0 9.92091 0.0277962 10.051 0.0817982C10.1812 0.1358 10.2994 0.214947 10.3989 0.314703L16.8261 6.74187C16.9258 6.84138 17.005 6.95959 17.059 7.08973C17.113 7.21987 17.1408 7.35938 17.1408 7.50028C17.1408 7.64118 17.113 7.78069 17.059 7.91083C17.005 8.04097 16.9258 8.15918 16.8261 8.25869L10.3989 14.6859C10.1978 14.887 9.92495 15 9.64049 15C9.35603 15 9.08323 14.887 8.88209 14.6859C8.68094 14.4847 8.56794 14.2119 8.56794 13.9275C8.56794 13.643 8.68094 13.3702 8.88209 13.169L14.553 7.50028L8.88209 1.83152C8.78233 1.73201 8.70318 1.6138 8.64918 1.48366C8.59518 1.35352 8.56738 1.21401 8.56738 1.07311C8.56738 0.93221 8.59518 0.792695 8.64918 0.662555C8.70318 0.532416 8.78233 0.414208 8.88209 0.314703Z" fill="white"/>
<path fill-rule="evenodd" clip-rule="evenodd" d="M0 7.50039C0 7.2163 0.112858 6.94383 0.313746 6.74295C0.514634 6.54206 0.787097 6.4292 1.0712 6.4292H14.9967C15.2808 6.4292 15.5533 6.54206 15.7542 6.74295C15.9551 6.94383 16.0679 7.2163 16.0679 7.50039C16.0679 7.78449 15.9551 8.05696 15.7542 8.25784C15.5533 8.45873 15.2808 8.57159 14.9967 8.57159H1.0712C0.787097 8.57159 0.514634 8.45873 0.313746 8.25784C0.112858 8.05696 0 7.78449 0 7.50039Z" fill="white"/>
</svg>
