<svg width="35" height="35" viewBox="0 0 35 35" fill="none" xmlns="http://www.w3.org/2000/svg">
<circle cx="17.5" cy="17.5" r="17.5" fill="#1A4178"/>
<path d="M25.4397 10.6945H9.56004C9.25922 10.6945 8.97071 10.814 8.758 11.0267C8.54528 11.2394 8.42578 11.5279 8.42578 11.8287V23.1713C8.42578 23.4721 8.54528 23.7606 8.758 23.9734C8.97071 24.1861 9.25922 24.3056 9.56004 24.3056H25.4397C25.7405 24.3056 26.029 24.1861 26.2417 23.9734C26.4544 23.7606 26.5739 23.4721 26.5739 23.1713V11.8287C26.5739 11.5279 26.4544 11.2394 26.2417 11.0267C26.029 10.814 25.7405 10.6945 25.4397 10.6945ZM24.5663 23.1713H10.5015L14.4714 19.0653L13.6547 18.277L9.56004 22.5134V12.6908L16.6095 19.7061C16.822 19.9174 17.1095 20.036 17.4091 20.036C17.7088 20.036 17.9962 19.9174 18.2088 19.7061L25.4397 12.5149V22.4397L21.2656 18.2656L20.4659 19.0653L24.5663 23.1713ZM10.303 11.8287H24.5209L17.4091 18.9008L10.303 11.8287Z" fill="#69E8A3"/>
</svg>
