<svg width="35" height="35" viewBox="0 0 35 35" fill="none" xmlns="http://www.w3.org/2000/svg">
<circle cx="17.5" cy="17.5" r="17.5" fill="#1A4178"/>
<path d="M18.375 14C19.0712 14 19.7389 14.2765 20.2312 14.7688C20.7234 15.2611 21 15.9288 21 16.625C21 16.857 21.0922 17.0796 21.2563 17.2437C21.4204 17.4078 21.6429 17.5 21.875 17.5C22.1071 17.5 22.3296 17.4078 22.4937 17.2437C22.6578 17.0796 22.75 16.857 22.75 16.625C22.75 15.4647 22.2891 14.3519 21.4686 13.5314C20.6481 12.7109 19.5353 12.25 18.375 12.25C18.1429 12.25 17.9204 12.3422 17.7563 12.5063C17.5922 12.6704 17.5 12.8929 17.5 13.125C17.5 13.357 17.5922 13.5796 17.7563 13.7437C17.9204 13.9078 18.1429 14 18.375 14Z" fill="#69E8A3"/>
<path d="M18.375 10.5C19.9995 10.5 21.5574 11.1453 22.706 12.294C23.8547 13.4426 24.5 15.0005 24.5 16.625C24.5 16.8571 24.5922 17.0796 24.7563 17.2437C24.9204 17.4078 25.1429 17.5 25.375 17.5C25.6071 17.5 25.8296 17.4078 25.9937 17.2437C26.1578 17.0796 26.25 16.8571 26.25 16.625C26.25 14.5364 25.4203 12.5334 23.9435 11.0565C22.4666 9.57968 20.4636 8.75 18.375 8.75C18.1429 8.75 17.9204 8.84219 17.7563 9.00628C17.5922 9.17038 17.5 9.39294 17.5 9.625C17.5 9.85706 17.5922 10.0796 17.7563 10.2437C17.9204 10.4078 18.1429 10.5 18.375 10.5ZM26.0312 20.9212C25.9831 20.7808 25.9 20.6549 25.7898 20.5554C25.6796 20.4559 25.5459 20.3861 25.4013 20.3525L20.1512 19.1538C20.0087 19.1214 19.8604 19.1253 19.7198 19.1651C19.5792 19.2048 19.4508 19.2791 19.3462 19.3812C19.2237 19.495 19.215 19.5037 18.6463 20.5887C16.759 19.7191 15.2469 18.2007 14.385 16.31C15.4962 15.75 15.505 15.75 15.6188 15.6188C15.7209 15.5142 15.7952 15.3858 15.8349 15.2452C15.8747 15.1046 15.8786 14.9563 15.8462 14.8138L14.6475 9.625C14.6139 9.48036 14.5441 9.34664 14.4446 9.23642C14.3451 9.12621 14.2192 9.04313 14.0788 8.995C13.8744 8.92202 13.6634 8.86926 13.4488 8.8375C13.2276 8.78622 13.0019 8.75691 12.775 8.75C11.7075 8.75 10.6837 9.17406 9.9289 9.9289C9.17406 10.6837 8.75 11.7075 8.75 12.775C8.75463 16.3474 10.1758 19.7721 12.7019 22.2981C15.2279 24.8242 18.6526 26.2454 22.225 26.25C22.7536 26.25 23.277 26.1459 23.7653 25.9436C24.2536 25.7413 24.6973 25.4449 25.0711 25.0711C25.4449 24.6973 25.7413 24.2536 25.9436 23.7653C26.1459 23.277 26.25 22.7536 26.25 22.225C26.2503 22.0023 26.2327 21.7799 26.1975 21.56C26.1607 21.3427 26.1051 21.1289 26.0312 20.9212ZM22.225 24.5C19.116 24.4977 16.1351 23.2616 13.9367 21.0633C11.7384 18.8649 10.5023 15.884 10.5 12.775C10.5023 12.1723 10.7427 11.595 11.1689 11.1689C11.595 10.7427 12.1723 10.5023 12.775 10.5H13.0637L14 14.56L13.5275 14.805C12.775 15.1988 12.18 15.5137 12.495 16.1962C13.0079 17.6484 13.8379 18.968 14.9246 20.0593C16.0114 21.1505 17.3275 21.986 18.7775 22.505C19.5125 22.8025 19.8012 22.2512 20.195 21.49L20.4487 21.0087L24.5 21.9362V22.225C24.4977 22.8277 24.2573 23.405 23.8311 23.8311C23.405 24.2573 22.8277 24.4977 22.225 24.5Z" fill="#69E8A3"/>
</svg>
