<svg width="35" height="35" viewBox="0 0 35 35" fill="none" xmlns="http://www.w3.org/2000/svg">
<path fill-rule="evenodd" clip-rule="evenodd" d="M35 17.5C35 22.1413 33.1563 26.5925 29.8744 29.8744C26.5925 33.1563 22.1413 35 17.5 35C12.8587 35 8.40752 33.1563 5.12563 29.8744C1.84374 26.5925 0 22.1413 0 17.5C0 12.8587 1.84374 8.40752 5.12563 5.12563C8.40752 1.84374 12.8587 0 17.5 0C22.1413 0 26.5925 1.84374 29.8744 5.12563C33.1563 8.40752 35 12.8587 35 17.5ZM16.7256 23.2881C16.5202 23.4935 16.4049 23.7721 16.4049 24.0625C16.4049 24.3529 16.5202 24.6315 16.7256 24.8369C16.931 25.0423 17.2096 25.1576 17.5 25.1576C17.7904 25.1576 18.069 25.0423 18.2744 24.8369L24.8369 18.2744C24.9387 18.1728 25.0195 18.0521 25.0747 17.9192C25.1298 17.7863 25.1582 17.6439 25.1582 17.5C25.1582 17.3561 25.1298 17.2137 25.0747 17.0808C25.0195 16.9479 24.9387 16.8272 24.8369 16.7256L18.2744 10.1631C18.1727 10.0614 18.052 9.98077 17.9191 9.92573C17.7862 9.87069 17.6438 9.84237 17.5 9.84237C17.3562 9.84237 17.2138 9.87069 17.0809 9.92573C16.948 9.98077 16.8273 10.0614 16.7256 10.1631C16.6239 10.2648 16.5433 10.3855 16.4882 10.5184C16.4332 10.6513 16.4049 10.7937 16.4049 10.9375C16.4049 11.0813 16.4332 11.2237 16.4882 11.3566C16.5433 11.4895 16.6239 11.6102 16.7256 11.7119L21.4222 16.4062H10.9375C10.6474 16.4062 10.3692 16.5215 10.1641 16.7266C9.95898 16.9317 9.84375 17.2099 9.84375 17.5C9.84375 17.7901 9.95898 18.0683 10.1641 18.2734C10.3692 18.4785 10.6474 18.5938 10.9375 18.5938H21.4222L16.7256 23.2881Z" fill="#1A4178"/>
</svg>
