<svg width="100" height="100" viewBox="0 0 100 100" fill="none" xmlns="http://www.w3.org/2000/svg">
<rect width="100" height="100" rx="5" fill="white"/>
<path d="M78.2191 32.0328L60.0194 13.7831C59.7906 13.5283 59.5094 13.3264 59.1952 13.1914C58.8809 13.0564 58.5412 12.9914 58.1995 13.0009H32.1999C30.8221 13.005 29.5018 13.5557 28.5276 14.5327C27.5533 15.5096 27.0041 16.8335 27 18.2151V80.7858C27.0041 82.1674 27.5533 83.4913 28.5276 84.4682C29.5018 85.4452 30.8221 85.9959 32.1999 86H73.7992C75.177 85.9959 76.4972 85.4452 77.4715 84.4682C78.4458 83.4913 78.995 82.1674 78.9991 80.7858V33.8578C79.0086 33.5151 78.9438 33.1744 78.8091 32.8593C78.6744 32.5442 78.4731 32.2622 78.2191 32.0328ZM58.1995 19.258L72.7592 33.8578H58.1995V19.258ZM73.7992 80.7858H32.1999V18.2151H52.9995V33.8578C53.0037 35.2394 53.5528 36.5633 54.5271 37.5403C55.5014 38.5172 56.8216 39.0679 58.1995 39.072H73.7992V80.7858Z" fill="#1A4178" stroke="#1A4178" stroke-width="0.5"/>
<rect x="20" y="42" width="35" height="46" fill="white"/>
<path fill-rule="evenodd" clip-rule="evenodd" d="M19.6719 54.8869C19.6719 53.6323 20.1703 52.4291 21.0574 51.542C21.9445 50.6549 23.1477 50.1565 24.4023 50.1565H43.324C44.5786 50.1565 45.7818 50.6549 46.669 51.542C47.5561 52.4291 48.0545 53.6323 48.0545 54.8869V83.2695C48.0545 84.5241 47.5561 85.7273 46.669 86.6144C45.7818 87.5016 44.5786 88 43.324 88H24.4023C23.1477 88 21.9445 87.5016 21.0574 86.6144C20.1703 85.7273 19.6719 84.5241 19.6719 83.2695V54.8869ZM24.4023 56.0695C24.4023 55.7559 24.5269 55.4551 24.7487 55.2333C24.9705 55.0115 25.2713 54.8869 25.5849 54.8869H42.1414C42.4551 54.8869 42.7559 55.0115 42.9777 55.2333C43.1994 55.4551 43.324 55.7559 43.324 56.0695V60.8C43.324 61.1136 43.1994 61.4144 42.9777 61.6362C42.7559 61.858 42.4551 61.9826 42.1414 61.9826H25.5849C25.2713 61.9826 24.9705 61.858 24.7487 61.6362C24.5269 61.4144 24.4023 61.1136 24.4023 60.8V56.0695ZM24.4023 65.5304C24.4023 65.2168 24.5269 64.916 24.7487 64.6942C24.9705 64.4724 25.2713 64.3478 25.5849 64.3478H27.9501C28.2638 64.3478 28.5646 64.4724 28.7864 64.6942C29.0081 64.916 29.1327 65.2168 29.1327 65.5304V67.8956C29.1327 68.2093 29.0081 68.5101 28.7864 68.7318C28.5646 68.9536 28.2638 69.0782 27.9501 69.0782H25.5849C25.2713 69.0782 24.9705 68.9536 24.7487 68.7318C24.5269 68.5101 24.4023 68.2093 24.4023 67.8956V65.5304ZM25.5849 71.4434C25.2713 71.4434 24.9705 71.568 24.7487 71.7898C24.5269 72.0116 24.4023 72.3124 24.4023 72.6261V74.9913C24.4023 75.3049 24.5269 75.6057 24.7487 75.8275C24.9705 76.0493 25.2713 76.1739 25.5849 76.1739H27.9501C28.2638 76.1739 28.5646 76.0493 28.7864 75.8275C29.0081 75.6057 29.1327 75.3049 29.1327 74.9913V72.6261C29.1327 72.3124 29.0081 72.0116 28.7864 71.7898C28.5646 71.568 28.2638 71.4434 27.9501 71.4434H25.5849ZM24.4023 79.7217C24.4023 79.4081 24.5269 79.1073 24.7487 78.8855C24.9705 78.6637 25.2713 78.5391 25.5849 78.5391H27.9501C28.2638 78.5391 28.5646 78.6637 28.7864 78.8855C29.0081 79.1073 29.1327 79.4081 29.1327 79.7217V82.0869C29.1327 82.4006 29.0081 82.7014 28.7864 82.9231C28.5646 83.1449 28.2638 83.2695 27.9501 83.2695H25.5849C25.2713 83.2695 24.9705 83.1449 24.7487 82.9231C24.5269 82.7014 24.4023 82.4006 24.4023 82.0869V79.7217ZM32.6806 64.3478C32.3669 64.3478 32.0661 64.4724 31.8443 64.6942C31.6226 64.916 31.498 65.2168 31.498 65.5304V67.8956C31.498 68.2093 31.6226 68.5101 31.8443 68.7318C32.0661 68.9536 32.3669 69.0782 32.6806 69.0782H35.0458C35.3594 69.0782 35.6602 68.9536 35.882 68.7318C36.1038 68.5101 36.2284 68.2093 36.2284 67.8956V65.5304C36.2284 65.2168 36.1038 64.916 35.882 64.6942C35.6602 64.4724 35.3594 64.3478 35.0458 64.3478H32.6806ZM31.498 72.6261C31.498 72.3124 31.6226 72.0116 31.8443 71.7898C32.0661 71.568 32.3669 71.4434 32.6806 71.4434H35.0458C35.3594 71.4434 35.6602 71.568 35.882 71.7898C36.1038 72.0116 36.2284 72.3124 36.2284 72.6261V74.9913C36.2284 75.3049 36.1038 75.6057 35.882 75.8275C35.6602 76.0493 35.3594 76.1739 35.0458 76.1739H32.6806C32.3669 76.1739 32.0661 76.0493 31.8443 75.8275C31.6226 75.6057 31.498 75.3049 31.498 74.9913V72.6261ZM32.6806 78.5391C32.3669 78.5391 32.0661 78.6637 31.8443 78.8855C31.6226 79.1073 31.498 79.4081 31.498 79.7217V82.0869C31.498 82.4006 31.6226 82.7014 31.8443 82.9231C32.0661 83.1449 32.3669 83.2695 32.6806 83.2695H35.0458C35.3594 83.2695 35.6602 83.1449 35.882 82.9231C36.1038 82.7014 36.2284 82.4006 36.2284 82.0869V79.7217C36.2284 79.4081 36.1038 79.1073 35.882 78.8855C35.6602 78.6637 35.3594 78.5391 35.0458 78.5391H32.6806ZM38.5936 65.5304C38.5936 65.2168 38.7182 64.916 38.94 64.6942C39.1618 64.4724 39.4626 64.3478 39.7762 64.3478H42.1414C42.4551 64.3478 42.7559 64.4724 42.9777 64.6942C43.1994 64.916 43.324 65.2168 43.324 65.5304V67.8956C43.324 68.2093 43.1994 68.5101 42.9777 68.7318C42.7559 68.9536 42.4551 69.0782 42.1414 69.0782H39.7762C39.4626 69.0782 39.1618 68.9536 38.94 68.7318C38.7182 68.5101 38.5936 68.2093 38.5936 67.8956V65.5304ZM39.7762 71.4434C39.4626 71.4434 39.1618 71.568 38.94 71.7898C38.7182 72.0116 38.5936 72.3124 38.5936 72.6261V82.0869C38.5936 82.4006 38.7182 82.7014 38.94 82.9231C39.1618 83.1449 39.4626 83.2695 39.7762 83.2695H42.1414C42.4551 83.2695 42.7559 83.1449 42.9777 82.9231C43.1994 82.7014 43.324 82.4006 43.324 82.0869V72.6261C43.324 72.3124 43.1994 72.0116 42.9777 71.7898C42.7559 71.568 42.4551 71.4434 42.1414 71.4434H39.7762Z" fill="#69E8A3"/>
</svg>
