<svg width="20" height="19" viewBox="0 0 20 19" fill="none" xmlns="http://www.w3.org/2000/svg">
<path d="M7.5 7.5H8.75V8.75H7.5V7.5ZM11.25 15H12.5V16.25H11.25V15ZM15 7.5H16.25V8.75H15V7.5ZM11.25 7.5H12.5V8.75H11.25V7.5ZM7.5 10H8.75V11.25H7.5V10ZM3.75 10H5V11.25H3.75V10ZM15 10H16.25V11.25H15V10ZM11.25 10H12.5V11.25H11.25V10ZM7.5 12.5H8.75V13.75H7.5V12.5ZM3.75 12.5H5V13.75H3.75V12.5ZM15 12.5H16.25V13.75H15V12.5ZM11.25 12.5H12.5V13.75H11.25V12.5ZM7.5 15H8.75V16.25H7.5V15ZM3.75 15H5V16.25H3.75V15ZM20 1.25V18.75H0V1.25H3.75V0H5V1.25H15V0H16.25V1.25H20ZM1.25 2.5V5H18.75V2.5H16.25V3.75H15V2.5H5V3.75H3.75V2.5H1.25ZM18.75 17.5V6.25H1.25V17.5H18.75Z" fill="black"/>
</svg>
