<svg width="31" height="32" viewBox="0 0 31 32" fill="none" xmlns="http://www.w3.org/2000/svg">
<path fill-rule="evenodd" clip-rule="evenodd" d="M19.5052 2.68446C18.9836 2.15071 18.3607 1.72658 17.6728 1.43702C16.985 1.14746 16.2463 0.998291 15.5 0.998291C14.7537 0.998291 14.015 1.14746 13.3272 1.43702C12.6393 1.72658 12.0164 2.15071 11.4948 2.68446L10.2895 3.92071L8.56499 3.8994C7.81849 3.89056 7.07777 4.03108 6.38637 4.31269C5.69497 4.59429 5.06685 5.0113 4.53896 5.53919C4.01107 6.06708 3.59406 6.69519 3.31246 7.38659C3.03085 8.07799 2.89033 8.81872 2.89917 9.56522L2.91855 11.2898L1.68617 12.495C1.15242 13.0166 0.728294 13.6396 0.438729 14.3274C0.149165 15.0152 0 15.754 0 16.5002C0 17.2465 0.149165 17.9853 0.438729 18.6731C0.728294 19.3609 1.15242 19.9839 1.68617 20.5054L2.92048 21.7107L2.89917 23.4352C2.89033 24.1817 3.03085 24.9225 3.31246 25.6139C3.59406 26.3053 4.01107 26.9334 4.53896 27.4613C5.06685 27.9892 5.69497 28.4062 6.38637 28.6878C7.07777 28.9694 7.81849 29.1099 8.56499 29.1011L10.2895 29.0817L11.4948 30.3141C12.0164 30.8478 12.6393 31.2719 13.3272 31.5615C14.015 31.8511 14.7537 32.0002 15.5 32.0002C16.2463 32.0002 16.985 31.8511 17.6728 31.5615C18.3607 31.2719 18.9836 30.8478 19.5052 30.3141L20.7105 29.0797L22.435 29.1011C23.1815 29.1099 23.9222 28.9694 24.6136 28.6878C25.305 28.4062 25.9331 27.9892 26.461 27.4613C26.9889 26.9334 27.4059 26.3053 27.6875 25.6139C27.9691 24.9225 28.1097 24.1817 28.1008 23.4352L28.0815 21.7107L29.3138 20.5054C29.8476 19.9839 30.2717 19.3609 30.5613 18.6731C30.8508 17.9853 31 17.2465 31 16.5002C31 15.754 30.8508 15.0152 30.5613 14.3274C30.2717 13.6396 29.8476 13.0166 29.3138 12.495L28.0795 11.2898L28.1008 9.56522C28.1097 8.81872 27.9691 8.07799 27.6875 7.38659C27.4059 6.69519 26.9889 6.06708 26.461 5.53919C25.9331 5.0113 25.305 4.59429 24.6136 4.31269C23.9222 4.03108 23.1815 3.89056 22.435 3.8994L20.7105 3.91878L19.5052 2.6864V2.68446ZM20.0613 14.2796C20.2433 14.0977 20.3455 13.851 20.3455 13.5937C20.3455 13.3364 20.2433 13.0897 20.0613 12.9077C19.8794 12.7258 19.6327 12.6236 19.3754 12.6236C19.1181 12.6236 18.8714 12.7258 18.6894 12.9077L13.5623 18.0368L11.3417 15.8143C11.2516 15.7242 11.1447 15.6528 11.027 15.604C10.9093 15.5552 10.7832 15.5302 10.6558 15.5302C10.5284 15.5302 10.4022 15.5552 10.2845 15.604C10.1668 15.6528 10.0599 15.7242 9.96982 15.8143C9.87974 15.9044 9.80828 16.0113 9.75953 16.129C9.71078 16.2467 9.68569 16.3728 9.68569 16.5002C9.68569 16.6276 9.71078 16.7538 9.75953 16.8715C9.80828 16.9892 9.87974 17.0961 9.96982 17.1862L12.8764 20.0927C12.9664 20.1829 13.0733 20.2545 13.191 20.3034C13.3087 20.3522 13.4349 20.3774 13.5623 20.3774C13.6897 20.3774 13.8159 20.3522 13.9336 20.3034C14.0513 20.2545 14.1583 20.1829 14.2482 20.0927L20.0613 14.2796V14.2796Z" fill="#69E8A3"/>
</svg>
