<svg width="20" height="17" viewBox="0 0 20 17" fill="none" xmlns="http://www.w3.org/2000/svg">
<path fill-rule="evenodd" clip-rule="evenodd" d="M16.1817 1.5018C16.4904 1.18151 16.907 1.00126 17.3415 1.00001C17.7761 0.998745 18.1936 1.1766 18.5039 1.4951C18.8142 1.8136 18.9923 2.24716 18.9998 2.70205C19.0071 3.15693 18.8432 3.59659 18.5436 3.92599L9.74056 15.4466C9.58926 15.6172 9.40667 15.7542 9.20367 15.8491C9.00069 15.9443 8.78148 15.9954 8.55915 15.9997C8.33683 16.004 8.11596 15.9613 7.90975 15.8743C7.70354 15.7872 7.51622 15.6575 7.35899 15.4928L1.52638 9.38385C1.36389 9.22533 1.23356 9.03417 1.14317 8.82177C1.05278 8.60936 1.00417 8.38008 1.00026 8.14757C0.996335 7.91508 1.03718 7.68413 1.12036 7.46852C1.20354 7.25292 1.32736 7.05706 1.4844 6.89263C1.64145 6.7282 1.82852 6.59858 2.03446 6.51149C2.24039 6.42441 2.46097 6.38164 2.68304 6.38574C2.9051 6.38985 3.12409 6.44073 3.32697 6.53537C3.52984 6.63001 3.71242 6.76646 3.86384 6.93659L8.48142 11.7688L16.1399 1.55259C16.1536 1.53471 16.1683 1.51774 16.184 1.5018H16.1817Z" fill="#69E8A3" stroke="#69E8A3"/>
</svg>
