<svg width="16" height="13" viewBox="0 0 16 13" fill="none" xmlns="http://www.w3.org/2000/svg">
<path fill-rule="evenodd" clip-rule="evenodd" d="M13.183 1.38462C13.4307 1.13913 13.765 1.00097 14.1137 1.00001C14.4624 0.999043 14.7975 1.13536 15.0465 1.37948C15.2955 1.6236 15.4384 1.95591 15.4444 2.30457C15.4503 2.65322 15.3188 2.99021 15.0783 3.24268L8.0141 12.0729C7.89269 12.2036 7.74616 12.3086 7.58326 12.3814C7.42037 12.4543 7.24446 12.4935 7.06605 12.4968C6.88764 12.5001 6.7104 12.4674 6.54492 12.4007C6.37944 12.3339 6.22912 12.2345 6.10295 12.1083L1.42241 7.42596C1.29202 7.30446 1.18743 7.15794 1.11489 6.99514C1.04236 6.83234 1.00335 6.6566 1.00021 6.47839C0.997062 6.30019 1.02984 6.12318 1.09659 5.95792C1.16334 5.79267 1.2627 5.64255 1.38872 5.51652C1.51475 5.39049 1.66487 5.29114 1.83013 5.22439C1.99539 5.15764 2.1724 5.12486 2.3506 5.128C2.5288 5.13115 2.70454 5.17015 2.86734 5.24269C3.03014 5.31523 3.17666 5.41981 3.29817 5.55021L7.00367 9.25394L13.1494 1.42355C13.1604 1.40984 13.1722 1.39684 13.1848 1.38462H13.183Z" fill="#27AE60" stroke="#27AE60"/>
</svg>
