<svg width="19" height="19" viewBox="0 0 19 19" fill="none" xmlns="http://www.w3.org/2000/svg">
<path d="M9.5 4.75L9.5 9.84326L12.8862 13.2388L12.0513 14.0737L8.3125 10.3442L8.3125 4.75H9.5ZM18.2578 5.79834C18.7526 6.98584 19 8.21973 19 9.5C19 10.7803 18.7526 12.0142 18.2578 13.2017C17.7754 14.3335 17.0951 15.3385 16.2168 16.2168C15.3385 17.0951 14.3335 17.7754 13.2017 18.2578C12.0142 18.7526 10.7803 19 9.5 19C8.42383 19 7.38477 18.8237 6.38281 18.4712C5.4056 18.131 4.51188 17.6486 3.70166 17.0239C2.89762 16.3993 2.20801 15.6632 1.63281 14.8159C1.34212 14.3892 1.08854 13.9438 0.87207 13.48C0.661784 13.0161 0.488607 12.5337 0.352539 12.0327L1.49365 11.7173C1.74105 12.6141 2.12142 13.4367 2.63477 14.1851C3.1543 14.9334 3.7666 15.5767 4.47168 16.1147C5.17676 16.6528 5.95915 17.0703 6.81885 17.3672C7.67855 17.6641 8.57227 17.8125 9.5 17.8125C10.2607 17.8125 10.9937 17.7135 11.6987 17.5156C12.41 17.3177 13.0718 17.0394 13.6841 16.6807C14.3026 16.3158 14.8654 15.8797 15.3726 15.3726C15.8797 14.8654 16.3127 14.3057 16.6714 13.6934C17.0363 13.0749 17.3177 12.4131 17.5156 11.708C17.7135 11.0029 17.8125 10.2669 17.8125 9.5C17.8125 8.73926 17.7135 8.00635 17.5156 7.30127C17.3177 6.59001 17.0363 5.92822 16.6714 5.31592C16.3127 4.69743 15.8797 4.1346 15.3726 3.62744C14.8654 3.12028 14.3026 2.68734 13.6841 2.32861C13.0718 1.9637 12.41 1.68229 11.6987 1.48437C10.9937 1.28646 10.2607 1.1875 9.5 1.1875C8.69596 1.1875 7.91667 1.30192 7.16211 1.53076C6.40755 1.75342 5.70247 2.07194 5.04688 2.48633C4.39746 2.90072 3.8099 3.40169 3.28418 3.98926C2.76465 4.57064 2.3348 5.22005 1.99463 5.9375L4.75 5.9375V7.125L0 7.125L0 2.375H1.1875L1.1875 4.91699C1.29264 4.71908 1.40706 4.52734 1.53076 4.3418C1.65446 4.15007 1.78434 3.96452 1.92041 3.78516C2.50179 3.01204 3.18213 2.34408 3.96143 1.78125C4.77783 1.19987 5.65299 0.75765 6.58691 0.45459C7.52083 0.15153 8.49186 0 9.5 0C10.7803 0 12.0142 0.247396 13.2017 0.742187C14.3335 1.22461 15.3385 1.90495 16.2168 2.7832C17.0951 3.66146 17.7754 4.6665 18.2578 5.79834Z" fill="black"/>
</svg>
