<svg width="17" height="17" viewBox="0 0 17 17" fill="none" xmlns="http://www.w3.org/2000/svg">
<path d="M10.3711 8.5L15.6085 3.26263C15.8571 3.01451 15.9969 2.6778 15.9972 2.32659C15.9975 1.97538 15.8583 1.63842 15.6101 1.38986C15.362 1.1413 15.0253 1.00148 14.6741 1.00117C14.3229 1.00086 13.9859 1.14008 13.7374 1.38821L8.5 6.62557L3.26263 1.38821C3.01407 1.13964 2.67694 1 2.32542 1C1.9739 1 1.63677 1.13964 1.38821 1.38821C1.13964 1.63677 1 1.9739 1 2.32542C1 2.67694 1.13964 3.01407 1.38821 3.26263L6.62557 8.5L1.38821 13.7374C1.13964 13.9859 1 14.3231 1 14.6746C1 15.0261 1.13964 15.3632 1.38821 15.6118C1.63677 15.8604 1.9739 16 2.32542 16C2.67694 16 3.01407 15.8604 3.26263 15.6118L8.5 10.3744L13.7374 15.6118C13.9859 15.8604 14.3231 16 14.6746 16C15.0261 16 15.3632 15.8604 15.6118 15.6118C15.8604 15.3632 16 15.0261 16 14.6746C16 14.3231 15.8604 13.9859 15.6118 13.7374L10.3711 8.5Z" fill="#F53F16" stroke="#F53F16" stroke-width="2"/>
</svg>
