<svg width="100" height="100" viewBox="0 0 100 100" fill="none" xmlns="http://www.w3.org/2000/svg">
<rect width="100" height="100" rx="5" fill="white"/>
<path d="M87.1083 48.192H70.3774C69.49 48.192 68.6389 48.5446 68.0113 49.1721C67.3838 49.7996 67.0312 50.6507 67.0312 51.5382V81.6538C67.0312 82.5413 67.3838 83.3924 68.0113 84.0199C68.6389 84.6475 69.49 85 70.3774 85H87.1083C87.9958 85 88.8469 84.6475 89.4744 84.0199C90.102 83.3924 90.4545 82.5413 90.4545 81.6538V51.5382C90.4545 50.6507 90.102 49.7996 89.4744 49.1721C88.8469 48.5446 87.9958 48.192 87.1083 48.192ZM87.1083 78.3077H70.3774V54.8844H87.1083V78.3077Z" fill="#69E8A3"/>
<path d="M77.2635 17.9583H17.0322C13.3179 17.9583 10.3398 20.9364 10.3398 24.6506V64.8048C10.3398 66.5797 11.0449 68.2819 12.3 69.537C13.5551 70.7921 15.2573 71.4972 17.0322 71.4972H40.4555V78.1895H33.7631V84.8819H60.5326V78.1895H53.8402V71.4972H60.5326V64.8048H17.0322V24.6506H77.2635V41.3815H83.9558V24.6506C83.9558 22.8757 83.2508 21.1735 81.9957 19.9184C80.7406 18.6633 79.0384 17.9583 77.2635 17.9583Z" fill="#1A4178"/>
</svg>
