<svg width="25" height="19" viewBox="0 0 25 19" fill="none" xmlns="http://www.w3.org/2000/svg">
<path d="M23.4375 0H1.5625C1.1481 0 0.750671 0.166815 0.457646 0.463748C0.16462 0.76068 0 1.16341 0 1.58333V17.4167C0 17.8366 0.16462 18.2393 0.457646 18.5363C0.750671 18.8332 1.1481 19 1.5625 19H23.4375C23.8519 19 24.2493 18.8332 24.5424 18.5363C24.8354 18.2393 25 17.8366 25 17.4167V1.58333C25 1.16341 24.8354 0.76068 24.5424 0.463748C24.2493 0.166815 23.8519 0 23.4375 0V0ZM22.2344 17.4167H2.85937L8.32812 11.685L7.20313 10.5846L1.5625 16.4983V2.78667L11.2734 12.5796C11.5662 12.8745 11.9622 13.04 12.375 13.04C12.7878 13.04 13.1838 12.8745 13.4766 12.5796L23.4375 2.54125V16.3954L17.6875 10.5688L16.5859 11.685L22.2344 17.4167ZM2.58594 1.58333H22.1719L12.375 11.4554L2.58594 1.58333Z" fill="black"/>
</svg>
