<svg width="12" height="16" viewBox="0 0 12 16" fill="none" xmlns="http://www.w3.org/2000/svg">
<path d="M0.34 6.01H1.81C1.94333 5.17 2.16667 4.41333 2.48 3.74C2.8 3.06 3.19333 2.48333 3.66 2.01C4.13333 1.53 4.67667 1.16333 5.29 0.91C5.90333 0.656666 6.57 0.53 7.29 0.53C8.18333 0.53 8.94667 0.696666 9.58 1.03C10.2133 1.36333 10.7633 1.82333 11.23 2.41L10.62 3.09C10.5667 3.15 10.5133 3.20333 10.46 3.25C10.4067 3.29 10.3333 3.31 10.24 3.31C10.1267 3.31 10.0067 3.24667 9.88 3.12C9.76 2.99333 9.59667 2.85333 9.39 2.7C9.18333 2.54667 8.91667 2.40667 8.59 2.28C8.27 2.15333 7.86 2.09 7.36 2.09C6.38667 2.09 5.57667 2.42333 4.93 3.09C4.29 3.75667 3.86333 4.73 3.65 6.01H9.12V6.56C9.12 6.68 9.07333 6.79 8.98 6.89C8.89333 6.98333 8.77 7.03 8.61 7.03H3.53C3.52333 7.16333 3.51667 7.29667 3.51 7.43C3.51 7.56333 3.51 7.7 3.51 7.84C3.51 7.94667 3.51 8.05 3.51 8.15C3.51 8.25 3.51333 8.35 3.52 8.45H8.19V9.01C8.19 9.12333 8.14333 9.23 8.05 9.33C7.95667 9.42333 7.83 9.47 7.67 9.47H3.61C3.79667 10.8433 4.21 11.8733 4.85 12.56C5.49 13.2467 6.29667 13.59 7.27 13.59C7.63 13.59 7.94667 13.5567 8.22 13.49C8.49333 13.4167 8.73 13.3267 8.93 13.22C9.13 13.1133 9.3 13 9.44 12.88C9.58667 12.7533 9.71333 12.6367 9.82 12.53C9.92667 12.4233 10.02 12.3367 10.1 12.27C10.1867 12.1967 10.27 12.16 10.35 12.16C10.4033 12.16 10.45 12.1733 10.49 12.2C10.53 12.22 10.5767 12.2533 10.63 12.3L11.38 13C10.9133 13.68 10.3333 14.21 9.64 14.59C8.94667 14.9633 8.12333 15.15 7.17 15.15C6.39667 15.15 5.7 15.02 5.08 14.76C4.46 14.4933 3.92333 14.1167 3.47 13.63C3.01667 13.1367 2.64333 12.54 2.35 11.84C2.06333 11.1333 1.86667 10.3433 1.76 9.47H0.34V8.45H1.68C1.67333 8.35 1.67 8.25 1.67 8.15C1.67 8.05 1.67 7.94667 1.67 7.84C1.67 7.70667 1.67 7.57333 1.67 7.44C1.67667 7.3 1.68333 7.16333 1.69 7.03H0.34V6.01Z" fill="black"/>
</svg>
