<svg width="11" height="18" viewBox="0 0 11 18" fill="none" xmlns="http://www.w3.org/2000/svg">
<path d="M1.5 -1.96701e-07L9.375 -5.40928e-07L9.375 0.562499C9.375 1.01953 9.27832 1.43848 9.08496 1.81934C8.88574 2.20019 8.60742 2.52832 8.25 2.80371L8.25 7.14551C8.5957 7.30957 8.90918 7.51465 9.19043 7.76074C9.46582 8.00684 9.70019 8.28516 9.89355 8.5957C10.0869 8.90039 10.2363 9.23144 10.3418 9.58887C10.4473 9.94043 10.5 10.3066 10.5 10.6875L10.5 11.25L6 11.25L6 16.875L5.4375 18L4.875 16.875L4.875 11.25L0.375 11.25L0.375 10.6875C0.375 10.3066 0.427734 9.94043 0.533203 9.58887C0.638671 9.23145 0.788086 8.90039 0.981445 8.5957C1.1748 8.28516 1.41211 8.00684 1.69336 7.76074C1.96875 7.51465 2.2793 7.30957 2.625 7.14551L2.625 2.80371C2.26758 2.52832 1.99219 2.2002 1.79883 1.81934C1.59961 1.43848 1.5 1.01953 1.5 0.5625L1.5 -1.96701e-07ZM2.72168 1.125C2.76855 1.26562 2.82715 1.38574 2.89746 1.48535C2.96777 1.58496 3.04687 1.67578 3.13476 1.75781C3.2168 1.83398 3.31055 1.90723 3.41601 1.97754C3.52148 2.04199 3.63281 2.10937 3.75 2.17969L3.75 7.91895L3.37207 8.05078C2.90918 8.21484 2.5166 8.48145 2.19434 8.85059C1.87207 9.21973 1.66113 9.64453 1.56152 10.125L9.31348 10.125C9.21387 9.64453 9.00293 9.21973 8.68066 8.85059C8.3584 8.48144 7.96582 8.21484 7.50293 8.05078L7.125 7.91894L7.125 2.17969C7.24219 2.10937 7.35351 2.04199 7.45898 1.97754C7.56445 1.90723 7.66113 1.83398 7.74902 1.75781C7.83105 1.67578 7.90723 1.58496 7.97754 1.48535C8.04785 1.38574 8.10644 1.26562 8.15332 1.125L2.72168 1.125Z" fill="black"/>
</svg>
