<svg width="153" height="44" viewBox="0 0 153 44" fill="none" xmlns="http://www.w3.org/2000/svg">
<path d="M63.2243 29.7229C63.1158 29.7586 62.9711 29.7944 62.7903 29.8301C62.6095 29.8837 62.4105 29.9105 62.1935 29.9105C61.3978 29.9105 61 29.5798 61 28.9184V14.6535C61 14.3674 61.0723 14.1529 61.217 14.0099C61.3617 13.849 61.5877 13.7239 61.8952 13.6345C62.4196 13.4736 63.0616 13.3574 63.8211 13.2859C64.5987 13.2144 65.3492 13.1787 66.0725 13.1787C68.3511 13.1787 70.042 13.6345 71.1451 14.5462C72.2663 15.44 72.8269 16.7181 72.8269 18.3806C72.8269 19.614 72.5014 20.6508 71.8504 21.491C71.2174 22.3312 70.2499 22.93 68.9479 23.2875C69.4 23.8596 69.8521 24.4316 70.3042 25.0036C70.7563 25.5756 71.1813 26.1209 71.5791 26.6393C71.995 27.1398 72.3567 27.5956 72.6641 28.0068C72.9896 28.4179 73.2428 28.7397 73.4237 28.9721C73.3513 29.276 73.1886 29.5173 72.9354 29.696C72.7003 29.8748 72.4562 29.9642 72.203 29.9642C71.8956 29.9642 71.6424 29.8927 71.4435 29.7497C71.2445 29.6067 71.0366 29.3832 70.8196 29.0793L66.8592 23.6093H63.2243V29.7229ZM66.3167 21.7859C67.6549 21.7859 68.7038 21.4999 69.4633 20.9279C70.2228 20.3559 70.6026 19.5068 70.6026 18.3806C70.6026 17.2544 70.2047 16.4142 69.409 15.8601C68.6133 15.288 67.474 15.002 65.9912 15.002C65.5029 15.002 65.0056 15.0288 64.4992 15.0825C64.011 15.1182 63.577 15.1719 63.1972 15.2434V21.7859H66.3167Z" fill="#1A4178"/>
<path d="M91.5982 21.6251C91.5982 23.0194 91.3993 24.2528 91.0014 25.3254C90.6036 26.3801 90.052 27.2649 89.3468 27.98C88.6415 28.6771 87.8096 29.2134 86.8512 29.5888C85.8927 29.9463 84.8529 30.1251 83.7317 30.1251C82.6105 30.1251 81.5707 29.9463 80.6122 29.5888C79.6538 29.2134 78.8219 28.6771 78.1166 27.98C77.4114 27.2649 76.8598 26.3801 76.462 25.3254C76.0641 24.2528 75.8652 23.0194 75.8652 21.6251C75.8652 20.2307 76.0641 19.0062 76.462 17.9516C76.8779 16.8969 77.4385 16.012 78.1438 15.297C78.849 14.5819 79.6809 14.0457 80.6394 13.6882C81.5978 13.3128 82.6286 13.1251 83.7317 13.1251C84.8348 13.1251 85.8656 13.3128 86.8241 13.6882C87.7825 14.0457 88.6144 14.5819 89.3196 15.297C90.0249 16.012 90.5765 16.8969 90.9743 17.9516C91.3902 19.0062 91.5982 20.2307 91.5982 21.6251ZM89.3468 21.6251C89.3468 19.48 88.8314 17.8354 87.8006 16.6913C86.7879 15.5472 85.4316 14.9752 83.7317 14.9752C82.8818 14.9752 82.1132 15.1272 81.426 15.4311C80.7388 15.7171 80.1511 16.1461 79.6628 16.7181C79.1746 17.2723 78.7948 17.9605 78.5235 18.7828C78.2704 19.6051 78.1438 20.5525 78.1438 21.6251C78.1438 23.7702 78.6501 25.4148 79.6628 26.5588C80.6755 27.7029 82.0318 28.2749 83.7317 28.2749C85.4497 28.2749 86.815 27.7029 87.8277 26.5588C88.8404 25.4148 89.3468 23.7702 89.3468 21.6251Z" fill="#1A4178"/>
<path d="M100.785 23.0194L95.7942 29.9105C95.6134 29.9463 95.4326 29.9642 95.2517 29.9642C94.8901 29.9642 94.6007 29.8837 94.3837 29.7229C94.1667 29.5441 94.0582 29.3028 94.0582 28.9989C94.0582 28.7665 94.1124 28.552 94.2209 28.3553C94.3475 28.1587 94.5012 27.9353 94.6821 27.685L99.4562 21.5178L94.1667 14.3853C94.2571 14.0814 94.4018 13.8312 94.6007 13.6345C94.8177 13.42 95.1071 13.3128 95.4687 13.3128C95.7581 13.3128 96.0022 13.4021 96.2011 13.5809C96.4001 13.7418 96.608 13.9742 96.825 14.2781L100.84 19.9626L105.641 13.3932C105.731 13.3753 105.822 13.3664 105.912 13.3664C106.003 13.3485 106.102 13.3396 106.211 13.3396C106.59 13.3396 106.871 13.429 107.051 13.6077C107.25 13.7865 107.35 14.0099 107.35 14.2781C107.35 14.4747 107.296 14.6713 107.187 14.868C107.097 15.0467 106.979 15.2344 106.834 15.4311C106.075 16.4321 105.306 17.4332 104.529 18.4342C103.751 19.4353 102.955 20.4453 102.142 21.4642L107.594 28.9184C107.504 29.2223 107.359 29.4726 107.16 29.6692C106.961 29.8659 106.69 29.9642 106.346 29.9642C106.057 29.9642 105.813 29.8927 105.614 29.7497C105.433 29.6067 105.234 29.3743 105.017 29.0525L100.785 23.0194Z" fill="#1A4178"/>
<path d="M117.189 15.3238V29.7229C117.098 29.7586 116.953 29.7944 116.755 29.8301C116.574 29.8837 116.384 29.9105 116.185 29.9105C115.389 29.9105 114.991 29.5798 114.991 28.9184V15.3238H109.919C109.865 15.2344 109.81 15.1182 109.756 14.9752C109.702 14.8143 109.675 14.6356 109.675 14.4389C109.675 14.1351 109.747 13.9027 109.892 13.7418C110.036 13.563 110.244 13.4736 110.516 13.4736H122.261C122.315 13.563 122.37 13.6882 122.424 13.849C122.478 13.992 122.505 14.1529 122.505 14.3317C122.505 14.6356 122.433 14.8769 122.288 15.0557C122.144 15.2344 121.936 15.3238 121.664 15.3238H117.189Z" fill="#1A4178"/>
<path d="M133.719 25.4326H126.449C126.323 25.7901 126.187 26.1834 126.042 26.6124C125.898 27.0236 125.753 27.4347 125.608 27.8459C125.482 28.2392 125.355 28.6145 125.229 28.9721C125.102 29.3117 125.003 29.5977 124.93 29.8301C124.677 29.9374 124.379 29.991 124.035 29.991C123.746 29.991 123.483 29.9195 123.248 29.7765C123.031 29.6156 122.923 29.3653 122.923 29.0257C122.923 28.8648 122.95 28.7039 123.004 28.543C123.059 28.3643 123.122 28.1766 123.194 27.98C123.465 27.2292 123.809 26.2639 124.225 25.0841C124.659 23.9042 125.12 22.6529 125.608 21.3301C126.115 19.9894 126.621 18.6487 127.127 17.308C127.652 15.9495 128.131 14.7339 128.565 13.6613C128.71 13.5898 128.927 13.5183 129.216 13.4468C129.505 13.3753 129.804 13.3396 130.111 13.3396C130.473 13.3396 130.817 13.3932 131.142 13.5005C131.486 13.6077 131.703 13.7865 131.793 14.0367C132.227 15.0735 132.688 16.2623 133.176 17.603C133.683 18.9258 134.189 20.2844 134.696 21.6787C135.202 23.073 135.681 24.4495 136.133 25.808C136.603 27.1487 137.019 28.3643 137.381 29.4547C137.236 29.6156 137.065 29.7407 136.866 29.8301C136.667 29.9374 136.441 29.991 136.187 29.991C135.844 29.991 135.582 29.9195 135.401 29.7765C135.22 29.6156 135.066 29.3564 134.94 28.9989L133.719 25.4326ZM130.084 15.1629C129.885 15.6992 129.659 16.3159 129.406 17.0131C129.153 17.6924 128.891 18.4074 128.619 19.1582C128.348 19.909 128.077 20.6687 127.806 21.4374C127.534 22.206 127.281 22.9389 127.046 23.6361H133.149C132.878 22.8317 132.598 22.0273 132.308 21.2229C132.019 20.4006 131.739 19.614 131.468 18.8632C131.214 18.1124 130.97 17.4242 130.735 16.7986C130.518 16.155 130.337 15.6098 130.193 15.1629H130.084Z" fill="#1A4178"/>
<path d="M142.801 29.7229C142.692 29.7586 142.547 29.7944 142.367 29.8301C142.186 29.8837 141.987 29.9105 141.77 29.9105C140.974 29.9105 140.576 29.5798 140.576 28.9184V14.6535C140.576 14.3674 140.649 14.1529 140.793 14.0099C140.938 13.849 141.164 13.7239 141.471 13.6345C141.996 13.4736 142.638 13.3574 143.397 13.2859C144.175 13.2144 144.926 13.1787 145.649 13.1787C147.927 13.1787 149.618 13.6345 150.721 14.5462C151.843 15.44 152.403 16.7181 152.403 18.3806C152.403 19.614 152.078 20.6508 151.427 21.491C150.794 22.3312 149.826 22.93 148.524 23.2875C148.976 23.8596 149.428 24.4316 149.881 25.0036C150.333 25.5756 150.758 26.1209 151.155 26.6393C151.571 27.1398 151.933 27.5956 152.24 28.0068C152.566 28.4179 152.819 28.7397 153 28.9721C152.928 29.276 152.765 29.5173 152.512 29.696C152.277 29.8748 152.033 29.9642 151.779 29.9642C151.472 29.9642 151.219 29.8927 151.02 29.7497C150.821 29.6067 150.613 29.3832 150.396 29.0793L146.436 23.6093H142.801V29.7229ZM145.893 21.7859C147.231 21.7859 148.28 21.4999 149.04 20.9279C149.799 20.3559 150.179 19.5068 150.179 18.3806C150.179 17.2544 149.781 16.4142 148.985 15.8601C148.19 15.288 147.05 15.002 145.567 15.002C145.079 15.002 144.582 15.0288 144.076 15.0825C143.587 15.1182 143.153 15.1719 142.774 15.2434V21.7859H145.893Z" fill="#1A4178"/>
<path d="M2.12681 31.0278L12.9465 18.055L23.0083 29.6949C23.7981 29.1546 24.8178 28.98 25.7849 29.2945L37.1865 9.54776C36.3123 8.6915 35.9756 7.36554 36.4397 6.1518C36.509 5.9703 36.5949 5.79987 36.6933 5.63915C32.7971 2.13512 27.6443 0 21.9927 0C9.84704 0 0 9.84704 0 21.9927C0 25.2709 0.721867 28.3773 2.00765 31.1719L2.12681 31.0278Z" fill="#1A4178"/>
<path d="M40.5635 10.2212C40.1949 10.3667 39.8014 10.4526 39.3983 10.4526C39.1475 10.4526 38.8953 10.4193 38.6445 10.3584L27.1819 30.2118C27.9329 31.068 28.1989 32.2998 27.7666 33.4359C27.2845 34.6995 26.0777 35.4768 24.8002 35.4768C24.4247 35.4768 24.0451 35.4103 23.6737 35.269C22.0402 34.6455 21.2172 32.8097 21.8407 31.1761C21.8656 31.111 21.8947 31.05 21.9238 30.9891L12.9912 20.6308L2.83105 32.7889C6.60527 39.4713 13.7685 43.9868 21.9903 43.9868C34.136 43.9868 43.983 34.1398 43.983 21.9941C43.983 17.6615 42.7263 13.6255 40.5635 10.2212ZM16.7599 31.9548L13.6618 28.8567L13.0425 31.9548L11.1845 28.8567L4.37039 33.8128L13.0439 23.2813L19.2386 30.7161L15.5212 28.8581L16.7599 31.9548Z" fill="#1A4178"/>
<path d="M41.0529 8.05772C41.3834 7.19112 40.9354 6.21564 40.0524 5.87892C39.1693 5.5422 38.1856 5.97175 37.8552 6.83835C37.5247 7.70495 37.9727 8.68044 38.8557 9.01716C39.7388 9.35387 40.7225 8.92432 41.0529 8.05772Z" fill="#1A4178"/>
<path d="M26.3643 32.8898C26.6817 32.0575 26.2515 31.1207 25.4035 30.7973C24.5555 30.474 23.6107 30.8865 23.2934 31.7188C22.976 32.5511 23.4062 33.4879 24.2542 33.8113C25.1022 34.1346 26.0469 33.7221 26.3643 32.8898Z" fill="#1A4178"/>
</svg>
