<svg width="262" height="81" viewBox="0 0 262 81" fill="none" xmlns="http://www.w3.org/2000/svg">
<path d="M75.84 46.92C75.68 46.9733 75.4667 47.0267 75.2 47.08C74.9333 47.16 74.64 47.2 74.32 47.2C73.1467 47.2 72.56 46.7067 72.56 45.72V24.44C72.56 24.0133 72.6667 23.6933 72.88 23.48C73.0933 23.24 73.4267 23.0533 73.88 22.92C74.6533 22.68 75.6 22.5067 76.72 22.4C77.8667 22.2933 78.9733 22.24 80.04 22.24C83.4 22.24 85.8933 22.92 87.52 24.28C89.1733 25.6133 90 27.52 90 30C90 31.84 89.52 33.3867 88.56 34.64C87.6267 35.8933 86.2 36.7867 84.28 37.32C84.9467 38.1733 85.6133 39.0267 86.28 39.88C86.9467 40.7333 87.5733 41.5467 88.16 42.32C88.7733 43.0667 89.3067 43.7467 89.76 44.36C90.24 44.9733 90.6133 45.4533 90.88 45.8C90.7733 46.2533 90.5333 46.6133 90.16 46.88C89.8133 47.1467 89.4533 47.28 89.08 47.28C88.6267 47.28 88.2533 47.1733 87.96 46.96C87.6667 46.7467 87.36 46.4133 87.04 45.96L81.2 37.8H75.84V46.92ZM80.4 35.08C82.3733 35.08 83.92 34.6533 85.04 33.8C86.16 32.9467 86.72 31.68 86.72 30C86.72 28.32 86.1333 27.0667 84.96 26.24C83.7867 25.3867 82.1067 24.96 79.92 24.96C79.2 24.96 78.4667 25 77.72 25.08C77 25.1333 76.36 25.2133 75.8 25.32V35.08H80.4ZM117.68 34.84C117.68 36.92 117.387 38.76 116.8 40.36C116.214 41.9333 115.4 43.2533 114.36 44.32C113.32 45.36 112.094 46.16 110.68 46.72C109.267 47.2533 107.734 47.52 106.08 47.52C104.427 47.52 102.894 47.2533 101.48 46.72C100.067 46.16 98.8403 45.36 97.8003 44.32C96.7603 43.2533 95.947 41.9333 95.3603 40.36C94.7736 38.76 94.4803 36.92 94.4803 34.84C94.4803 32.76 94.7736 30.9333 95.3603 29.36C95.9736 27.7867 96.8003 26.4667 97.8403 25.4C98.8803 24.3333 100.107 23.5333 101.52 23C102.934 22.44 104.454 22.16 106.08 22.16C107.707 22.16 109.227 22.44 110.64 23C112.054 23.5333 113.28 24.3333 114.32 25.4C115.36 26.4667 116.174 27.7867 116.76 29.36C117.374 30.9333 117.68 32.76 117.68 34.84ZM114.36 34.84C114.36 31.64 113.6 29.1867 112.08 27.48C110.587 25.7733 108.587 24.92 106.08 24.92C104.827 24.92 103.694 25.1467 102.68 25.6C101.667 26.0267 100.8 26.6667 100.08 27.52C99.3603 28.3467 98.8003 29.3733 98.4003 30.6C98.027 31.8267 97.8403 33.24 97.8403 34.84C97.8403 38.04 98.587 40.4933 100.08 42.2C101.574 43.9067 103.574 44.76 106.08 44.76C108.614 44.76 110.627 43.9067 112.12 42.2C113.614 40.4933 114.36 38.04 114.36 34.84ZM131.228 36.92L123.868 47.2C123.601 47.2533 123.334 47.28 123.068 47.28C122.534 47.28 122.108 47.16 121.788 46.92C121.468 46.6533 121.308 46.2933 121.308 45.84C121.308 45.4933 121.388 45.1733 121.548 44.88C121.734 44.5867 121.961 44.2533 122.228 43.88L129.268 34.68L121.468 24.04C121.601 23.5867 121.814 23.2133 122.108 22.92C122.428 22.6 122.854 22.44 123.388 22.44C123.814 22.44 124.174 22.5733 124.468 22.84C124.761 23.08 125.068 23.4267 125.388 23.88L131.308 32.36L138.388 22.56C138.521 22.5333 138.654 22.52 138.788 22.52C138.921 22.4933 139.068 22.48 139.228 22.48C139.788 22.48 140.201 22.6133 140.468 22.88C140.761 23.1467 140.908 23.48 140.908 23.88C140.908 24.1733 140.828 24.4667 140.668 24.76C140.534 25.0267 140.361 25.3067 140.148 25.6C139.028 27.0933 137.894 28.5867 136.748 30.08C135.601 31.5733 134.428 33.08 133.228 34.6L141.268 45.72C141.134 46.1733 140.921 46.5467 140.628 46.84C140.334 47.1333 139.934 47.28 139.428 47.28C139.001 47.28 138.641 47.1733 138.348 46.96C138.081 46.7467 137.788 46.4 137.468 45.92L131.228 36.92ZM155.416 25.44V46.92C155.283 46.9733 155.069 47.0267 154.776 47.08C154.509 47.16 154.229 47.2 153.936 47.2C152.763 47.2 152.176 46.7067 152.176 45.72V25.44H144.696C144.616 25.3067 144.536 25.1333 144.456 24.92C144.376 24.68 144.336 24.4133 144.336 24.12C144.336 23.6667 144.443 23.32 144.656 23.08C144.869 22.8133 145.176 22.68 145.576 22.68H162.896C162.976 22.8133 163.056 23 163.136 23.24C163.216 23.4533 163.256 23.6933 163.256 23.96C163.256 24.4133 163.149 24.7733 162.936 25.04C162.723 25.3067 162.416 25.44 162.016 25.44H155.416ZM179.792 40.52H169.072C168.885 41.0533 168.685 41.64 168.472 42.28C168.259 42.8933 168.045 43.5067 167.832 44.12C167.645 44.7067 167.459 45.2667 167.272 45.8C167.085 46.3067 166.939 46.7333 166.832 47.08C166.459 47.24 166.019 47.32 165.512 47.32C165.085 47.32 164.699 47.2133 164.352 47C164.032 46.76 163.872 46.3867 163.872 45.88C163.872 45.64 163.912 45.4 163.992 45.16C164.072 44.8933 164.165 44.6133 164.272 44.32C164.672 43.2 165.179 41.76 165.792 40C166.432 38.24 167.112 36.3733 167.832 34.4C168.579 32.4 169.325 30.4 170.072 28.4C170.845 26.3733 171.552 24.56 172.192 22.96C172.405 22.8533 172.725 22.7467 173.152 22.64C173.579 22.5333 174.019 22.48 174.472 22.48C175.005 22.48 175.512 22.56 175.992 22.72C176.499 22.88 176.819 23.1467 176.952 23.52C177.592 25.0667 178.272 26.84 178.992 28.84C179.739 30.8133 180.485 32.84 181.232 34.92C181.979 37 182.685 39.0533 183.352 41.08C184.045 43.08 184.659 44.8933 185.192 46.52C184.979 46.76 184.725 46.9467 184.432 47.08C184.139 47.24 183.805 47.32 183.432 47.32C182.925 47.32 182.539 47.2133 182.272 47C182.005 46.76 181.779 46.3733 181.592 45.84L179.792 40.52ZM174.432 25.2C174.139 26 173.805 26.92 173.432 27.96C173.059 28.9733 172.672 30.04 172.272 31.16C171.872 32.28 171.472 33.4133 171.072 34.56C170.672 35.7067 170.299 36.8 169.952 37.84H178.952C178.552 36.64 178.139 35.44 177.712 34.24C177.285 33.0133 176.872 31.84 176.472 30.72C176.099 29.6 175.739 28.5733 175.392 27.64C175.072 26.68 174.805 25.8667 174.592 25.2H174.432ZM193.184 46.92C193.024 46.9733 192.81 47.0267 192.544 47.08C192.277 47.16 191.984 47.2 191.664 47.2C190.49 47.2 189.904 46.7067 189.904 45.72V24.44C189.904 24.0133 190.01 23.6933 190.224 23.48C190.437 23.24 190.77 23.0533 191.224 22.92C191.997 22.68 192.944 22.5067 194.064 22.4C195.21 22.2933 196.317 22.24 197.384 22.24C200.744 22.24 203.237 22.92 204.864 24.28C206.517 25.6133 207.344 27.52 207.344 30C207.344 31.84 206.864 33.3867 205.904 34.64C204.97 35.8933 203.544 36.7867 201.624 37.32C202.29 38.1733 202.957 39.0267 203.624 39.88C204.29 40.7333 204.917 41.5467 205.504 42.32C206.117 43.0667 206.65 43.7467 207.104 44.36C207.584 44.9733 207.957 45.4533 208.224 45.8C208.117 46.2533 207.877 46.6133 207.504 46.88C207.157 47.1467 206.797 47.28 206.424 47.28C205.97 47.28 205.597 47.1733 205.304 46.96C205.01 46.7467 204.704 46.4133 204.384 45.96L198.544 37.8H193.184V46.92ZM197.744 35.08C199.717 35.08 201.264 34.6533 202.384 33.8C203.504 32.9467 204.064 31.68 204.064 30C204.064 28.32 203.477 27.0667 202.304 26.24C201.13 25.3867 199.45 24.96 197.264 24.96C196.544 24.96 195.81 25 195.064 25.08C194.344 25.1333 193.704 25.2133 193.144 25.32V35.08H197.744Z" fill="#1D1D1D"/>
<path d="M98.05 65.112C97.3313 65.112 96.6827 64.9533 96.104 64.636C95.5347 64.3093 95.082 63.852 94.746 63.264C94.4193 62.6667 94.256 61.9713 94.256 61.178C94.256 60.3847 94.424 59.694 94.76 59.106C95.096 58.5087 95.5533 58.0513 96.132 57.734C96.7107 57.4073 97.3593 57.244 98.078 57.244C98.7967 57.244 99.4453 57.4073 100.024 57.734C100.612 58.0513 101.069 58.5087 101.396 59.106C101.732 59.694 101.9 60.3847 101.9 61.178C101.9 61.962 101.732 62.6527 101.396 63.25C101.06 63.8473 100.598 64.3093 100.01 64.636C99.422 64.9533 98.7687 65.112 98.05 65.112ZM98.05 64.258C98.554 64.258 99.0207 64.146 99.45 63.922C99.8793 63.6887 100.225 63.3433 100.486 62.886C100.757 62.4193 100.892 61.85 100.892 61.178C100.892 60.506 100.761 59.9413 100.5 59.484C100.239 59.0173 99.8933 58.672 99.464 58.448C99.0347 58.2147 98.568 58.098 98.064 58.098C97.56 58.098 97.0933 58.2147 96.664 58.448C96.2347 58.672 95.8893 59.0173 95.628 59.484C95.376 59.9413 95.25 60.506 95.25 61.178C95.25 61.85 95.376 62.4193 95.628 62.886C95.8893 63.3433 96.23 63.6887 96.65 63.922C97.0793 64.146 97.546 64.258 98.05 64.258ZM107.27 57.216C108.185 57.216 108.932 57.5007 109.51 58.07C110.089 58.63 110.378 59.4467 110.378 60.52V65H109.412V60.632C109.412 59.8013 109.202 59.1667 108.782 58.728C108.372 58.2893 107.807 58.07 107.088 58.07C106.351 58.07 105.763 58.3033 105.324 58.77C104.886 59.2367 104.666 59.9227 104.666 60.828V65H103.686V57.356H104.666V58.658C104.909 58.1913 105.259 57.8367 105.716 57.594C106.174 57.342 106.692 57.216 107.27 57.216ZM113.526 54.64V65H112.546V54.64H113.526ZM116.235 55.914C116.039 55.914 115.871 55.844 115.731 55.704C115.591 55.564 115.521 55.3913 115.521 55.186C115.521 54.9807 115.591 54.8127 115.731 54.682C115.871 54.542 116.039 54.472 116.235 54.472C116.431 54.472 116.599 54.542 116.739 54.682C116.879 54.8127 116.949 54.9807 116.949 55.186C116.949 55.3913 116.879 55.564 116.739 55.704C116.599 55.844 116.431 55.914 116.235 55.914ZM116.725 57.356V65H115.745V57.356H116.725ZM122.528 57.216C123.443 57.216 124.19 57.5007 124.768 58.07C125.347 58.63 125.636 59.4467 125.636 60.52V65H124.67V60.632C124.67 59.8013 124.46 59.1667 124.04 58.728C123.63 58.2893 123.065 58.07 122.346 58.07C121.609 58.07 121.021 58.3033 120.582 58.77C120.144 59.2367 119.924 59.9227 119.924 60.828V65H118.944V57.356H119.924V58.658C120.167 58.1913 120.517 57.8367 120.974 57.594C121.432 57.342 121.95 57.216 122.528 57.216ZM134.72 60.786C134.72 61.122 134.71 61.3787 134.692 61.556H128.35C128.378 62.1347 128.518 62.6293 128.77 63.04C129.022 63.4507 129.353 63.7633 129.764 63.978C130.174 64.1833 130.622 64.286 131.108 64.286C131.742 64.286 132.274 64.132 132.704 63.824C133.142 63.516 133.432 63.1007 133.572 62.578H134.608C134.421 63.3247 134.02 63.936 133.404 64.412C132.797 64.8787 132.032 65.112 131.108 65.112C130.389 65.112 129.745 64.9533 129.176 64.636C128.606 64.3093 128.158 63.852 127.832 63.264C127.514 62.6667 127.356 61.9713 127.356 61.178C127.356 60.3847 127.514 59.6893 127.832 59.092C128.149 58.4947 128.592 58.0373 129.162 57.72C129.731 57.4027 130.38 57.244 131.108 57.244C131.836 57.244 132.47 57.4027 133.012 57.72C133.562 58.0373 133.982 58.4667 134.272 59.008C134.57 59.54 134.72 60.1327 134.72 60.786ZM133.726 60.758C133.735 60.1887 133.618 59.7033 133.376 59.302C133.142 58.9007 132.82 58.5973 132.41 58.392C131.999 58.1867 131.551 58.084 131.066 58.084C130.338 58.084 129.717 58.3173 129.204 58.784C128.69 59.2507 128.406 59.9087 128.35 60.758H133.726ZM149.454 57.216C150.35 57.216 151.078 57.5007 151.638 58.07C152.208 58.63 152.492 59.4467 152.492 60.52V65H151.526V60.632C151.526 59.8013 151.326 59.1667 150.924 58.728C150.523 58.2893 149.977 58.07 149.286 58.07C148.568 58.07 147.994 58.308 147.564 58.784C147.135 59.26 146.92 59.9507 146.92 60.856V65H145.954V60.632C145.954 59.8013 145.754 59.1667 145.352 58.728C144.951 58.2893 144.4 58.07 143.7 58.07C142.982 58.07 142.408 58.308 141.978 58.784C141.549 59.26 141.334 59.9507 141.334 60.856V65H140.354V57.356H141.334V58.672C141.577 58.196 141.922 57.8367 142.37 57.594C142.818 57.342 143.318 57.216 143.868 57.216C144.531 57.216 145.11 57.3747 145.604 57.692C146.108 58.0093 146.472 58.476 146.696 59.092C146.902 58.4853 147.252 58.0233 147.746 57.706C148.25 57.3793 148.82 57.216 149.454 57.216ZM154.221 61.164C154.221 60.38 154.375 59.694 154.683 59.106C155 58.5087 155.434 58.0513 155.985 57.734C156.545 57.4073 157.175 57.244 157.875 57.244C158.603 57.244 159.228 57.412 159.751 57.748C160.283 58.084 160.665 58.5133 160.899 59.036V57.356H161.879V65H160.899V63.306C160.656 63.8287 160.269 64.2627 159.737 64.608C159.214 64.944 158.589 65.112 157.861 65.112C157.17 65.112 156.545 64.9487 155.985 64.622C155.434 64.2953 155 63.8333 154.683 63.236C154.375 62.6387 154.221 61.948 154.221 61.164ZM160.899 61.178C160.899 60.562 160.773 60.0207 160.521 59.554C160.269 59.0873 159.923 58.728 159.485 58.476C159.055 58.224 158.579 58.098 158.057 58.098C157.515 58.098 157.03 58.2193 156.601 58.462C156.171 58.7047 155.831 59.0593 155.579 59.526C155.336 59.9833 155.215 60.5293 155.215 61.164C155.215 61.7893 155.336 62.34 155.579 62.816C155.831 63.2827 156.171 63.642 156.601 63.894C157.03 64.1367 157.515 64.258 158.057 64.258C158.579 64.258 159.055 64.132 159.485 63.88C159.923 63.628 160.269 63.2687 160.521 62.802C160.773 62.3353 160.899 61.794 160.899 61.178ZM165.096 58.714C165.311 58.238 165.637 57.8693 166.076 57.608C166.524 57.3467 167.07 57.216 167.714 57.216V58.238H167.448C166.739 58.238 166.169 58.4293 165.74 58.812C165.311 59.1947 165.096 59.834 165.096 60.73V65H164.116V57.356H165.096V58.714ZM173.318 65L170.168 61.57V65H169.188V54.64H170.168V60.772L173.248 57.356H174.62L170.994 61.164L174.648 65H173.318ZM182.831 60.786C182.831 61.122 182.822 61.3787 182.803 61.556H176.461C176.489 62.1347 176.629 62.6293 176.881 63.04C177.133 63.4507 177.464 63.7633 177.875 63.978C178.286 64.1833 178.734 64.286 179.219 64.286C179.854 64.286 180.386 64.132 180.815 63.824C181.254 63.516 181.543 63.1007 181.683 62.578H182.719C182.532 63.3247 182.131 63.936 181.515 64.412C180.908 64.8787 180.143 65.112 179.219 65.112C178.5 65.112 177.856 64.9533 177.287 64.636C176.718 64.3093 176.27 63.852 175.943 63.264C175.626 62.6667 175.467 61.9713 175.467 61.178C175.467 60.3847 175.626 59.6893 175.943 59.092C176.26 58.4947 176.704 58.0373 177.273 57.72C177.842 57.4027 178.491 57.244 179.219 57.244C179.947 57.244 180.582 57.4027 181.123 57.72C181.674 58.0373 182.094 58.4667 182.383 59.008C182.682 59.54 182.831 60.1327 182.831 60.786ZM181.837 60.758C181.846 60.1887 181.73 59.7033 181.487 59.302C181.254 58.9007 180.932 58.5973 180.521 58.392C180.11 58.1867 179.662 58.084 179.177 58.084C178.449 58.084 177.828 58.3173 177.315 58.784C176.802 59.2507 176.517 59.9087 176.461 60.758H181.837ZM185.898 58.182V62.928C185.898 63.3947 185.987 63.7167 186.164 63.894C186.341 64.0713 186.654 64.16 187.102 64.16H187.998V65H186.948C186.257 65 185.744 64.8413 185.408 64.524C185.072 64.1973 184.904 63.6653 184.904 62.928V58.182H183.84V57.356H184.904V55.438H185.898V57.356H187.998V58.182H185.898ZM190.104 55.914C189.908 55.914 189.74 55.844 189.6 55.704C189.46 55.564 189.39 55.3913 189.39 55.186C189.39 54.9807 189.46 54.8127 189.6 54.682C189.74 54.542 189.908 54.472 190.104 54.472C190.3 54.472 190.468 54.542 190.608 54.682C190.748 54.8127 190.818 54.9807 190.818 55.186C190.818 55.3913 190.748 55.564 190.608 55.704C190.468 55.844 190.3 55.914 190.104 55.914ZM190.594 57.356V65H189.614V57.356H190.594ZM196.397 57.216C197.312 57.216 198.059 57.5007 198.637 58.07C199.216 58.63 199.505 59.4467 199.505 60.52V65H198.539V60.632C198.539 59.8013 198.329 59.1667 197.909 58.728C197.499 58.2893 196.934 58.07 196.215 58.07C195.478 58.07 194.89 58.3033 194.451 58.77C194.013 59.2367 193.793 59.9227 193.793 60.828V65H192.813V57.356H193.793V58.658C194.036 58.1913 194.386 57.8367 194.843 57.594C195.301 57.342 195.819 57.216 196.397 57.216ZM204.879 57.244C205.597 57.244 206.223 57.412 206.755 57.748C207.287 58.084 207.669 58.5087 207.903 59.022V57.356H208.883V65.196C208.883 65.896 208.729 66.5167 208.421 67.058C208.122 67.5993 207.702 68.0147 207.161 68.304C206.619 68.6027 206.003 68.752 205.313 68.752C204.333 68.752 203.516 68.5187 202.863 68.052C202.219 67.5853 201.817 66.9507 201.659 66.148H202.625C202.793 66.68 203.11 67.1047 203.577 67.422C204.053 67.7393 204.631 67.898 205.313 67.898C205.807 67.898 206.251 67.7907 206.643 67.576C207.035 67.3707 207.343 67.0627 207.567 66.652C207.791 66.2413 207.903 65.756 207.903 65.196V63.306C207.66 63.8287 207.273 64.2627 206.741 64.608C206.218 64.944 205.597 65.112 204.879 65.112C204.179 65.112 203.549 64.9487 202.989 64.622C202.438 64.2953 202.004 63.8333 201.687 63.236C201.379 62.6387 201.225 61.948 201.225 61.164C201.225 60.38 201.379 59.694 201.687 59.106C202.004 58.5087 202.438 58.0513 202.989 57.734C203.549 57.4073 204.179 57.244 204.879 57.244ZM207.903 61.178C207.903 60.562 207.777 60.0207 207.525 59.554C207.273 59.0873 206.927 58.728 206.489 58.476C206.059 58.224 205.583 58.098 205.061 58.098C204.519 58.098 204.034 58.2193 203.605 58.462C203.175 58.7047 202.835 59.0593 202.583 59.526C202.34 59.9833 202.219 60.5293 202.219 61.164C202.219 61.7893 202.34 62.34 202.583 62.816C202.835 63.2827 203.175 63.642 203.605 63.894C204.034 64.1367 204.519 64.258 205.061 64.258C205.583 64.258 206.059 64.132 206.489 63.88C206.927 63.628 207.273 63.2687 207.525 62.802C207.777 62.3353 207.903 61.794 207.903 61.178Z" fill="#1D1D1D"/>
<circle cx="27.0139" cy="42.6236" r="27.0139" fill="#27AE60"/>
<rect x="1" y="54.1366" width="24.3197" height="2.17153" transform="rotate(-51.2364 1 54.1366)" fill="white"/>
<rect x="16.5742" y="35" width="23.4347" height="2.17153" transform="rotate(47.1933 16.5742 35)" fill="white"/>
<path d="M32.119 52.2927L46.4188 27.7848" stroke="#FDFDFD" stroke-width="2"/>
<circle cx="31.7081" cy="51.724" r="3.6165" transform="rotate(12.6665 31.7081 51.724)" fill="#27AE60" stroke="#FDFDFD" stroke-width="2"/>
<circle cx="48.4572" cy="25.2578" r="3.6165" transform="rotate(12.6665 48.4572 25.2578)" fill="#27AE60" stroke="#FDFDFD" stroke-width="2"/>
<path d="M16.741 39.9602L24.3506 49.0917L19.7848 46.8088L21.3068 50.6136L17.502 46.8088L16.741 50.6136L14.4582 46.8088L6.08764 52.8965L16.741 39.9602Z" fill="#FDFDFD"/>
</svg>
