<svg width="152" height="39" viewBox="0 0 152 39" fill="none" xmlns="http://www.w3.org/2000/svg">
<path d="M54.8785 28.6223C54.7619 28.661 54.6064 28.6998 54.4121 28.7385C54.2178 28.7967 54.004 28.8258 53.7708 28.8258C52.9158 28.8258 52.4883 28.4672 52.4883 27.7501V12.2838C52.4883 11.9737 52.566 11.7411 52.7215 11.586C52.8769 11.4116 53.1198 11.2759 53.4502 11.179C54.0137 11.0046 54.7036 10.8786 55.5198 10.8011C56.3554 10.7236 57.1618 10.6848 57.9391 10.6848C60.3876 10.6848 62.2045 11.179 63.3899 12.1675C64.5947 13.1365 65.1972 14.5223 65.1972 16.3248C65.1972 17.6621 64.8474 18.7862 64.1478 19.6971C63.4677 20.6081 62.428 21.2573 61.0289 21.645C61.5147 22.2652 62.0005 22.8854 62.4863 23.5056C62.9721 24.1258 63.4288 24.7169 63.8563 25.279C64.3033 25.8216 64.6919 26.3159 65.0223 26.7616C65.372 27.2074 65.6441 27.5563 65.8384 27.8082C65.7607 28.1377 65.5858 28.3994 65.3138 28.5932C65.0611 28.787 64.7988 28.8839 64.5267 28.8839C64.1964 28.8839 63.9243 28.8064 63.7106 28.6513C63.4968 28.4963 63.2733 28.254 63.0401 27.9245L58.7844 21.9938H54.8785V28.6223ZM58.2014 20.0169C59.6395 20.0169 60.7665 19.7068 61.5827 19.0866C62.3989 18.4664 62.807 17.5458 62.807 16.3248C62.807 15.1037 62.3794 14.1928 61.5244 13.592C60.6694 12.9718 59.4451 12.6617 57.8517 12.6617C57.327 12.6617 56.7926 12.6908 56.2485 12.7489C55.7238 12.7877 55.2574 12.8458 54.8493 12.9233V20.0169H58.2014Z" fill="#1A4178"/>
<path d="M85.3683 19.8425C85.3683 21.3542 85.1546 22.6916 84.7271 23.8544C84.2996 24.9979 83.7069 25.9573 82.949 26.7326C82.1911 27.4884 81.2972 28.0699 80.2673 28.4769C79.2374 28.8645 78.12 29.0583 76.9152 29.0583C75.7104 29.0583 74.593 28.8645 73.5631 28.4769C72.5332 28.0699 71.6393 27.4884 70.8814 26.7326C70.1235 25.9573 69.5308 24.9979 69.1033 23.8544C68.6758 22.6916 68.462 21.3542 68.462 19.8425C68.462 18.3307 68.6758 17.0031 69.1033 15.8596C69.5503 14.7161 70.1527 13.7567 70.9105 12.9815C71.6684 12.2062 72.5623 11.6248 73.5922 11.2372C74.6222 10.8302 75.7298 10.6266 76.9152 10.6266C78.1006 10.6266 79.2082 10.8302 80.2382 11.2372C81.2681 11.6248 82.162 12.2062 82.9198 12.9815C83.6777 13.7567 84.2704 14.7161 84.6979 15.8596C85.1449 17.0031 85.3683 18.3307 85.3683 19.8425ZM82.949 19.8425C82.949 17.5167 82.3952 15.7336 81.2875 14.4932C80.1993 13.2528 78.7419 12.6326 76.9152 12.6326C76.0019 12.6326 75.176 12.7974 74.4375 13.1268C73.6991 13.4369 73.0676 13.9021 72.5429 14.5223C72.0182 15.1231 71.6101 15.8693 71.3186 16.7609C71.0466 17.6524 70.9105 18.6796 70.9105 19.8425C70.9105 22.1683 71.4547 23.9513 72.5429 25.1917C73.6311 26.4322 75.0885 27.0524 76.9152 27.0524C78.7613 27.0524 80.2284 26.4322 81.3167 25.1917C82.4049 23.9513 82.949 22.1683 82.949 19.8425Z" fill="#1A4178"/>
<path d="M95.2407 21.3542L89.8773 28.8258C89.683 28.8645 89.4886 28.8839 89.2943 28.8839C88.9057 28.8839 88.5948 28.7967 88.3616 28.6223C88.1284 28.4284 88.0118 28.1668 88.0118 27.8373C88.0118 27.5854 88.0701 27.3528 88.1867 27.1396C88.3227 26.9264 88.4879 26.6841 88.6822 26.4128L93.8124 19.7262L88.1284 11.993C88.2255 11.6636 88.381 11.3922 88.5948 11.179C88.8279 10.9464 89.1389 10.8302 89.5275 10.8302C89.8384 10.8302 90.1008 10.9271 90.3145 11.1209C90.5283 11.2953 90.7518 11.5473 90.985 11.8767L95.299 18.04L100.458 10.9174C100.555 10.898 100.653 10.8883 100.75 10.8883C100.847 10.8689 100.954 10.8592 101.07 10.8592C101.479 10.8592 101.78 10.9561 101.974 11.1499C102.188 11.3438 102.295 11.586 102.295 11.8767C102.295 12.0899 102.236 12.3031 102.12 12.5163C102.023 12.7101 101.896 12.9137 101.741 13.1268C100.925 14.2122 100.099 15.2976 99.2632 16.3829C98.4276 17.4683 97.5726 18.5633 96.6981 19.6681L102.557 27.7501C102.46 28.0796 102.304 28.3509 102.091 28.5641C101.877 28.7773 101.585 28.8839 101.216 28.8839C100.905 28.8839 100.643 28.8064 100.429 28.6513C100.235 28.4963 100.021 28.2443 99.7879 27.8955L95.2407 21.3542Z" fill="#1A4178"/>
<path d="M112.867 13.0106V28.6223C112.77 28.661 112.614 28.6998 112.401 28.7385C112.206 28.7967 112.002 28.8258 111.789 28.8258C110.934 28.8258 110.506 28.4672 110.506 27.7501V13.0106H105.055C104.997 12.9137 104.939 12.7877 104.88 12.6326C104.822 12.4582 104.793 12.2644 104.793 12.0512C104.793 11.7217 104.871 11.4697 105.026 11.2953C105.181 11.1015 105.405 11.0046 105.696 11.0046H118.318C118.376 11.1015 118.434 11.2372 118.493 11.4116C118.551 11.5666 118.58 11.7411 118.58 11.9349C118.58 12.2644 118.502 12.526 118.347 12.7198C118.192 12.9137 117.968 13.0106 117.677 13.0106H112.867Z" fill="#1A4178"/>
<path d="M130.63 23.9707H122.818C122.682 24.3584 122.537 24.7847 122.381 25.2499C122.226 25.6957 122.07 26.1414 121.915 26.5872C121.779 27.0136 121.643 27.4206 121.507 27.8082C121.371 28.1765 121.264 28.4866 121.186 28.7385C120.914 28.8548 120.593 28.913 120.224 28.913C119.913 28.913 119.631 28.8354 119.379 28.6804C119.146 28.506 119.029 28.2346 119.029 27.8664C119.029 27.6919 119.058 27.5175 119.117 27.3431C119.175 27.1493 119.243 26.9458 119.321 26.7326C119.612 25.9186 119.981 24.872 120.428 23.5928C120.895 22.3136 121.39 20.9569 121.915 19.5227C122.459 18.0691 123.003 16.6155 123.547 15.1619C124.111 13.6889 124.626 12.371 125.092 11.2081C125.247 11.1306 125.481 11.053 125.792 10.9755C126.102 10.898 126.423 10.8592 126.753 10.8592C127.142 10.8592 127.511 10.9174 127.861 11.0337C128.23 11.1499 128.464 11.3438 128.561 11.6151C129.027 12.7392 129.523 14.0281 130.047 15.4817C130.591 16.9159 131.136 18.3889 131.68 19.9006C132.224 21.4124 132.739 22.9047 133.225 24.3777C133.73 25.8313 134.177 27.1493 134.565 28.3315C134.41 28.506 134.225 28.6416 134.012 28.7385C133.798 28.8548 133.555 28.913 133.283 28.913C132.914 28.913 132.632 28.8354 132.437 28.6804C132.243 28.506 132.078 28.2249 131.942 27.8373L130.63 23.9707ZM126.724 12.8361C126.511 13.4176 126.268 14.0862 125.996 14.8421C125.724 15.5786 125.442 16.3538 125.15 17.1679C124.859 17.9819 124.567 18.8056 124.276 19.639C123.984 20.4724 123.712 21.267 123.46 22.0229H130.018C129.727 21.1507 129.425 20.2786 129.115 19.4064C128.804 18.5149 128.502 17.6621 128.211 16.8481C127.939 16.0341 127.677 15.2879 127.424 14.6095C127.191 13.9118 126.996 13.3207 126.841 12.8361H126.724Z" fill="#1A4178"/>
<path d="M140.389 28.6223C140.273 28.661 140.117 28.6998 139.923 28.7385C139.728 28.7967 139.515 28.8258 139.282 28.8258C138.427 28.8258 137.999 28.4672 137.999 27.7501V12.2838C137.999 11.9737 138.077 11.7411 138.232 11.586C138.388 11.4116 138.631 11.2759 138.961 11.179C139.524 11.0046 140.214 10.8786 141.03 10.8011C141.866 10.7236 142.673 10.6848 143.45 10.6848C145.898 10.6848 147.715 11.179 148.901 12.1675C150.105 13.1365 150.708 14.5223 150.708 16.3248C150.708 17.6621 150.358 18.7862 149.659 19.6971C148.978 20.6081 147.939 21.2573 146.54 21.645C147.025 22.2652 147.511 22.8854 147.997 23.5056C148.483 24.1258 148.94 24.7169 149.367 25.279C149.814 25.8216 150.203 26.3159 150.533 26.7616C150.883 27.2074 151.155 27.5563 151.349 27.8082C151.271 28.1377 151.097 28.3994 150.824 28.5932C150.572 28.787 150.31 28.8839 150.037 28.8839C149.707 28.8839 149.435 28.8064 149.221 28.6513C149.008 28.4963 148.784 28.254 148.551 27.9245L144.295 21.9938H140.389V28.6223ZM143.712 20.0169C145.15 20.0169 146.277 19.7068 147.093 19.0866C147.91 18.4664 148.318 17.5458 148.318 16.3248C148.318 15.1037 147.89 14.1928 147.035 13.592C146.18 12.9718 144.956 12.6617 143.362 12.6617C142.838 12.6617 142.303 12.6908 141.759 12.7489C141.235 12.7877 140.768 12.8458 140.36 12.9233V20.0169H143.712Z" fill="#1A4178"/>
<circle cx="18.3943" cy="19.8799" r="18.3943" fill="#1A4178"/>
<rect x="0.681641" y="27.7194" width="16.5598" height="1.47864" transform="rotate(-51.2364 0.681641 27.7194)" fill="#69E8A3"/>
<rect x="11.2861" y="14.6889" width="15.9571" height="1.47864" transform="rotate(47.1933 11.2861 14.6889)" fill="#69E8A3"/>
<path d="M21.8708 26.4638L31.6078 9.77598" stroke="#69E8A3" stroke-width="2"/>
<circle cx="21.5902" cy="26.0766" r="2.46254" transform="rotate(12.6665 21.5902 26.0766)" fill="#1A4178" stroke="#69E8A3" stroke-width="2"/>
<circle cx="32.9954" cy="8.05519" r="2.46254" transform="rotate(12.6665 32.9954 8.05519)" fill="#1A4178" stroke="#69E8A3" stroke-width="2"/>
<path d="M11.3986 18.8611L16.5801 25.0789L13.4712 23.5244L14.5075 26.1152L11.9167 23.5244L11.3986 26.1152L9.84414 23.5244L4.1445 27.6696L11.3986 18.8611Z" fill="#69E8A3"/>
</svg>
