<svg width="181" height="46" viewBox="0 0 181 46" fill="none" xmlns="http://www.w3.org/2000/svg">
<path d="M65.5033 34.1634C65.3642 34.2097 65.1786 34.256 64.9467 34.3022C64.7147 34.3716 64.4596 34.4063 64.1812 34.4063C63.1607 34.4063 62.6504 33.9784 62.6504 33.1224V14.6618C62.6504 14.2917 62.7432 14.0141 62.9287 13.829C63.1143 13.6208 63.4042 13.4589 63.7985 13.3432C64.4712 13.135 65.2946 12.9847 66.2687 12.8921C67.2661 12.7996 68.2287 12.7533 69.1565 12.7533C72.079 12.7533 74.2477 13.3432 75.6626 14.523C77.1006 15.6797 77.8197 17.3338 77.8197 19.4852C77.8197 21.0814 77.4022 22.4232 76.5672 23.5104C75.7553 24.5977 74.5144 25.3727 72.8444 25.8353C73.4243 26.5756 74.0041 27.3159 74.584 28.0562C75.1639 28.7964 75.709 29.502 76.2192 30.1729C76.7527 30.8206 77.2166 31.4105 77.6109 31.9426C78.0284 32.4747 78.3531 32.8911 78.5851 33.1918C78.4923 33.5851 78.2836 33.8974 77.9588 34.1287C77.6573 34.3601 77.3442 34.4757 77.0194 34.4757C76.6251 34.4757 76.3004 34.3832 76.0453 34.1981C75.7901 34.0131 75.5234 33.7239 75.2451 33.3306L70.1654 26.2518H65.5033V34.1634ZM69.4696 23.8921C71.186 23.8921 72.5313 23.522 73.5055 22.7817C74.4796 22.0414 74.9667 20.9426 74.9667 19.4852C74.9667 18.0278 74.4564 16.9405 73.4359 16.2234C72.4153 15.4831 70.9541 15.113 69.0521 15.113C68.4258 15.113 67.788 15.1477 67.1385 15.2171C66.5123 15.2633 65.9556 15.3327 65.4685 15.4253V23.8921H69.4696Z" fill="white"/>
<path d="M101.896 23.6839C101.896 25.4883 101.641 27.0846 101.131 28.4726C100.62 29.8375 99.9128 30.9826 99.0082 31.9079C98.1036 32.8101 97.0367 33.5041 95.8073 33.9899C94.578 34.4526 93.2443 34.6839 91.8063 34.6839C90.3682 34.6839 89.0345 34.4526 87.8052 33.9899C86.5759 33.5041 85.5089 32.8101 84.6044 31.9079C83.6998 30.9826 82.9923 29.8375 82.482 28.4726C81.9718 27.0846 81.7166 25.4883 81.7166 23.6839C81.7166 21.8795 81.9718 20.2949 82.482 18.93C83.0155 17.5651 83.7346 16.42 84.6391 15.4947C85.5437 14.5693 86.6107 13.8753 87.84 13.4126C89.0693 12.9268 90.3914 12.6839 91.8063 12.6839C93.2211 12.6839 94.5432 12.9268 95.7726 13.4126C97.0019 13.8753 98.0688 14.5693 98.9734 15.4947C99.878 16.42 100.585 17.5651 101.096 18.93C101.629 20.2949 101.896 21.8795 101.896 23.6839ZM99.0082 23.6839C99.0082 20.9079 98.3472 18.7796 97.0251 17.2991C95.7262 15.8185 93.9866 15.0783 91.8063 15.0783C90.7161 15.0783 89.7304 15.2749 88.849 15.6682C87.9676 16.0383 87.2137 16.5935 86.5875 17.3338C85.9612 18.0509 85.4741 18.9416 85.1262 20.0057C84.8015 21.0698 84.6391 22.2959 84.6391 23.6839C84.6391 26.46 85.2886 28.5882 86.5875 30.0688C87.8864 31.5493 89.626 32.2896 91.8063 32.2896C94.0098 32.2896 95.761 31.5493 97.0599 30.0688C98.3587 28.5882 99.0082 26.46 99.0082 23.6839Z" fill="white"/>
<path d="M113.68 25.4883L107.278 34.4063C107.046 34.4526 106.814 34.4757 106.582 34.4757C106.118 34.4757 105.747 34.3716 105.469 34.1634C105.19 33.9321 105.051 33.6198 105.051 33.2265C105.051 32.9258 105.121 32.6482 105.26 32.3937C105.422 32.1392 105.619 31.8501 105.851 31.5262L111.975 23.5451L105.19 14.3148C105.306 13.9216 105.492 13.5977 105.747 13.3432C106.025 13.0656 106.396 12.9268 106.86 12.9268C107.231 12.9268 107.545 13.0425 107.8 13.2738C108.055 13.482 108.322 13.7828 108.6 14.176L113.749 21.5325L119.907 13.0309C120.023 13.0078 120.139 12.9962 120.255 12.9962C120.371 12.9731 120.499 12.9615 120.638 12.9615C121.125 12.9615 121.484 13.0772 121.716 13.3085C121.972 13.5399 122.099 13.829 122.099 14.176C122.099 14.4305 122.03 14.685 121.89 14.9394C121.774 15.1708 121.624 15.4137 121.438 15.6682C120.464 16.9636 119.478 18.2591 118.481 19.5546C117.483 20.8501 116.463 22.1571 115.419 23.4757L122.412 33.1224C122.296 33.5157 122.111 33.8396 121.856 34.094C121.6 34.3485 121.253 34.4757 120.812 34.4757C120.441 34.4757 120.128 34.3832 119.872 34.1981C119.641 34.0131 119.385 33.7123 119.107 33.2959L113.68 25.4883Z" fill="white"/>
<path d="M134.718 15.5294V34.1634C134.602 34.2097 134.417 34.256 134.162 34.3022C133.93 34.3716 133.686 34.4063 133.431 34.4063C132.41 34.4063 131.9 33.9784 131.9 33.1224V15.5294H125.394C125.324 15.4137 125.255 15.2633 125.185 15.0783C125.116 14.87 125.081 14.6387 125.081 14.3842C125.081 13.991 125.174 13.6902 125.359 13.482C125.545 13.2507 125.812 13.135 126.159 13.135H141.224C141.294 13.2507 141.364 13.4126 141.433 13.6208C141.503 13.8059 141.537 14.0141 141.537 14.2454C141.537 14.6387 141.445 14.951 141.259 15.1824C141.074 15.4137 140.807 15.5294 140.459 15.5294H134.718Z" fill="white"/>
<path d="M155.92 28.6114H146.596C146.434 29.074 146.26 29.583 146.074 30.1382C145.889 30.6703 145.703 31.2023 145.518 31.7344C145.355 32.2433 145.193 32.7291 145.031 33.1918C144.868 33.6314 144.741 34.0015 144.648 34.3022C144.323 34.441 143.94 34.5104 143.5 34.5104C143.129 34.5104 142.792 34.4179 142.491 34.2328C142.212 34.0246 142.073 33.7008 142.073 33.2612C142.073 33.053 142.108 32.8448 142.178 32.6366C142.247 32.4053 142.328 32.1624 142.421 31.9079C142.769 30.9363 143.21 29.6871 143.743 28.1603C144.3 26.6335 144.891 25.0141 145.518 23.3022C146.167 21.5672 146.817 19.8322 147.466 18.0972C148.139 16.339 148.753 14.7659 149.31 13.3779C149.496 13.2854 149.774 13.1929 150.145 13.1003C150.516 13.0078 150.899 12.9615 151.293 12.9615C151.757 12.9615 152.198 13.0309 152.615 13.1697C153.056 13.3085 153.334 13.5399 153.45 13.8637C154.007 15.2055 154.598 16.7439 155.225 18.4789C155.874 20.1908 156.523 21.9489 157.173 23.7533C157.822 25.5577 158.437 27.339 159.017 29.0972C159.62 30.8322 160.153 32.4053 160.617 33.8164C160.432 34.0246 160.211 34.1866 159.956 34.3022C159.701 34.441 159.411 34.5104 159.086 34.5104C158.646 34.5104 158.309 34.4179 158.078 34.2328C157.846 34.0246 157.648 33.6892 157.486 33.2265L155.92 28.6114ZM151.258 15.3212C151.003 16.0152 150.713 16.8133 150.389 17.7155C150.064 18.5946 149.727 19.5199 149.38 20.4915C149.032 21.4631 148.684 22.4463 148.336 23.441C147.988 24.4358 147.663 25.3842 147.362 26.2865H155.19C154.842 25.2454 154.482 24.2044 154.111 23.1634C153.74 22.0993 153.381 21.0814 153.033 20.1098C152.708 19.1382 152.395 18.2475 152.093 17.4379C151.815 16.6051 151.583 15.8995 151.397 15.3212H151.258Z" fill="white"/>
<path d="M167.569 34.1634C167.429 34.2097 167.244 34.256 167.012 34.3022C166.78 34.3716 166.525 34.4063 166.247 34.4063C165.226 34.4063 164.716 33.9784 164.716 33.1224V14.6618C164.716 14.2917 164.808 14.0141 164.994 13.829C165.18 13.6208 165.47 13.4589 165.864 13.3432C166.536 13.135 167.36 12.9847 168.334 12.8921C169.331 12.7996 170.294 12.7533 171.222 12.7533C174.144 12.7533 176.313 13.3432 177.728 14.523C179.166 15.6797 179.885 17.3338 179.885 19.4852C179.885 21.0814 179.467 22.4232 178.632 23.5104C177.821 24.5977 176.58 25.3727 174.91 25.8353C175.49 26.5756 176.069 27.3159 176.649 28.0562C177.229 28.7964 177.774 29.502 178.285 30.1729C178.818 30.8206 179.282 31.4105 179.676 31.9426C180.094 32.4747 180.418 32.8911 180.65 33.1918C180.558 33.5851 180.349 33.8974 180.024 34.1287C179.723 34.3601 179.409 34.4757 179.085 34.4757C178.69 34.4757 178.366 34.3832 178.111 34.1981C177.855 34.0131 177.589 33.7239 177.31 33.3306L172.231 26.2518H167.569V34.1634ZM171.535 23.8921C173.251 23.8921 174.597 23.522 175.571 22.7817C176.545 22.0414 177.032 20.9426 177.032 19.4852C177.032 18.0278 176.522 16.9405 175.501 16.2234C174.481 15.4831 173.019 15.113 171.117 15.113C170.491 15.113 169.853 15.1477 169.204 15.2171C168.578 15.2633 168.021 15.3327 167.534 15.4253V23.8921H171.535Z" fill="white"/>
<circle cx="21.9554" cy="23.7286" r="21.9554" fill="white"/>
<rect x="0.813477" y="33.0857" width="19.7657" height="1.7649" transform="rotate(-51.2364 0.813477 33.0857)" fill="#1A4178"/>
<rect x="13.4707" y="17.5326" width="19.0463" height="1.7649" transform="rotate(47.1933 13.4707 17.5326)" fill="#1A4178"/>
<path d="M26.1056 31.5871L37.7276 11.6685" stroke="#1A4178" stroke-width="2"/>
<circle cx="25.7711" cy="31.1249" r="2.93928" transform="rotate(12.6665 25.7711 31.1249)" fill="white" stroke="#1A4178" stroke-width="2"/>
<circle cx="39.3834" cy="9.61465" r="2.93928" transform="rotate(12.6665 39.3834 9.61465)" fill="white" stroke="#1A4178" stroke-width="2"/>
<path d="M13.6064 22.5125L19.791 29.9341L16.0803 28.0787L17.3172 31.171L14.2249 28.0787L13.6064 31.171L11.751 28.0787L4.94796 33.0264L13.6064 22.5125Z" fill="#1A4178"/>
</svg>
