<svg width="17" height="17" viewBox="0 0 17 17" fill="none" xmlns="http://www.w3.org/2000/svg">
<path d="M16.5467 5.36584H1.13801C1.03044 5.36584 0.927281 5.41345 0.851217 5.49818C0.775154 5.58292 0.732422 5.69784 0.732422 5.81768V10.036C0.732422 10.2855 0.914177 10.4878 1.13801 10.4878H16.5465C16.6541 10.4877 16.7572 10.4401 16.8332 10.3554C16.9092 10.2706 16.9519 10.1558 16.9519 10.036V5.81768C16.952 5.75837 16.9415 5.69964 16.9212 5.64484C16.9008 5.59003 16.871 5.54023 16.8333 5.49828C16.7957 5.45632 16.751 5.42303 16.7019 5.40031C16.6527 5.37758 16.6 5.36587 16.5467 5.36584V5.36584Z" fill="#F53F16"/>
</svg>
