<svg width="17" height="17" viewBox="0 0 17 17" fill="none" xmlns="http://www.w3.org/2000/svg">
<path d="M13.3394 10.0688C13.5828 10.0688 13.8153 10.1159 14.0366 10.21C14.2635 10.2985 14.4627 10.4285 14.6343 10.6001L16.4604 12.4263C16.632 12.5978 16.762 12.797 16.8506 13.0239C16.9447 13.2453 16.9917 13.4777 16.9917 13.7212C16.9917 13.9647 16.9447 14.1999 16.8506 14.4268C16.762 14.6481 16.632 14.8446 16.4604 15.0161L16.3442 15.1323C16.0454 15.4312 15.7715 15.6968 15.5225 15.9292C15.2734 16.1616 15.0133 16.3581 14.7422 16.5186C14.471 16.6735 14.1694 16.7925 13.8374 16.8755C13.5054 16.9585 13.1097 17 12.6504 17C11.9587 17 11.2476 16.8921 10.5171 16.6763C9.78662 16.4604 9.05892 16.1616 8.33398 15.7798C7.61458 15.3979 6.90625 14.9442 6.20898 14.4185C5.51725 13.8927 4.86149 13.32 4.2417 12.7002C3.62744 12.0749 3.06022 11.4163 2.54004 10.7246C2.01986 10.0273 1.57161 9.31901 1.19531 8.59961C0.81901 7.87467 0.525716 7.15251 0.31543 6.43311C0.105143 5.7137 0 5.01644 0 4.34131C0 3.882 0.038737 3.4891 0.116211 3.1626C0.199219 2.8361 0.318197 2.53727 0.473145 2.26611C0.633626 1.99495 0.827311 1.73763 1.0542 1.49414C1.28662 1.24512 1.55225 0.971191 1.85107 0.672363L1.98389 0.539551C2.15544 0.368001 2.35189 0.235189 2.57324 0.141113C2.7946 0.0470378 3.02979 0 3.27881 0C3.5223 0 3.75472 0.0470378 3.97607 0.141113C4.20296 0.235189 4.40218 0.368001 4.57373 0.539551L6.3999 2.36572C6.57145 2.53727 6.7015 2.73649 6.79004 2.96338C6.88411 3.18473 6.93115 3.41715 6.93115 3.66064C6.93115 3.90413 6.88965 4.12272 6.80664 4.31641C6.72363 4.50456 6.62126 4.67611 6.49951 4.83105C6.37777 4.986 6.24219 5.12712 6.09277 5.25439C5.94889 5.38167 5.81608 5.50618 5.69434 5.62793C5.57259 5.74967 5.47021 5.87419 5.38721 6.00146C5.3042 6.12321 5.2627 6.25602 5.2627 6.3999C5.2627 6.61019 5.3374 6.79004 5.48682 6.93945L10.0605 11.5132C10.21 11.6626 10.3898 11.7373 10.6001 11.7373C10.744 11.7373 10.8768 11.6958 10.9985 11.6128C11.1258 11.5298 11.2503 11.4274 11.3721 11.3057C11.4938 11.1839 11.6183 11.0511 11.7456 10.9072C11.8729 10.7578 12.014 10.6222 12.1689 10.5005C12.3239 10.3787 12.4954 10.2764 12.6836 10.1934C12.8773 10.1104 13.0959 10.0688 13.3394 10.0688ZM12.6504 15.9375C13.0488 15.9375 13.3809 15.9015 13.6465 15.8296C13.9176 15.7521 14.1611 15.6442 14.377 15.5059C14.5928 15.362 14.8031 15.1849 15.0078 14.9746C15.2126 14.7643 15.4478 14.5264 15.7134 14.2607C15.8628 14.1113 15.9375 13.9315 15.9375 13.7212C15.9375 13.6216 15.896 13.5054 15.813 13.3726C15.7355 13.2342 15.6331 13.0903 15.5059 12.9409C15.3786 12.7915 15.2347 12.6393 15.0742 12.4844C14.9193 12.3239 14.7643 12.1745 14.6094 12.0361C14.46 11.8923 14.3188 11.7622 14.186 11.646C14.0588 11.5243 13.9591 11.4274 13.8872 11.3555C13.7378 11.2061 13.5552 11.1313 13.3394 11.1313C13.1955 11.1313 13.0627 11.1729 12.9409 11.2559C12.8192 11.3389 12.6974 11.4412 12.5757 11.563C12.4539 11.6847 12.3267 11.8203 12.1938 11.9697C12.0666 12.1136 11.9255 12.2464 11.7705 12.3682C11.6156 12.4899 11.4412 12.5923 11.2476 12.6753C11.0594 12.7583 10.8436 12.7998 10.6001 12.7998C10.3566 12.7998 10.1214 12.7555 9.89453 12.667C9.67318 12.5729 9.47673 12.4401 9.30518 12.2686L4.73145 7.69482C4.5599 7.52327 4.42708 7.32682 4.33301 7.10547C4.24447 6.87858 4.2002 6.64339 4.2002 6.3999C4.2002 6.15641 4.2417 5.94059 4.32471 5.75244C4.40771 5.55876 4.51009 5.38444 4.63184 5.22949C4.75358 5.07454 4.88639 4.93343 5.03027 4.80615C5.17969 4.67334 5.31527 4.54606 5.43701 4.42432C5.55876 4.30257 5.66113 4.18083 5.74414 4.05908C5.82715 3.93734 5.86865 3.80452 5.86865 3.66064C5.86865 3.44482 5.79395 3.26221 5.64453 3.11279C5.57259 3.04085 5.47575 2.94124 5.354 2.81396C5.23779 2.68115 5.10775 2.54004 4.96387 2.39062C4.82552 2.23568 4.67611 2.08073 4.51562 1.92578C4.36068 1.7653 4.2085 1.62142 4.05908 1.49414C3.90967 1.36686 3.76579 1.26449 3.62744 1.18701C3.49463 1.104 3.37842 1.0625 3.27881 1.0625C3.06852 1.0625 2.88867 1.13721 2.73926 1.28662C2.47363 1.55225 2.23568 1.78743 2.02539 1.99219C1.82064 2.19694 1.64355 2.40723 1.49414 2.62305C1.35026 2.83887 1.23958 3.08236 1.16211 3.35352C1.09017 3.61914 1.0542 3.9484 1.0542 4.34131C1.0542 4.9611 1.15381 5.60026 1.35303 6.25879C1.55778 6.91732 1.83724 7.57585 2.19141 8.23438C2.55111 8.8929 2.97445 9.54313 3.46143 10.1851C3.9484 10.8215 4.47965 11.4246 5.05518 11.9946C5.6307 12.5646 6.23665 13.0903 6.87305 13.5718C7.51497 14.0532 8.16243 14.471 8.81543 14.8252C9.47396 15.1738 10.127 15.4478 10.7744 15.647C11.4274 15.8407 12.0527 15.9375 12.6504 15.9375Z" fill="black"/>
</svg>
