<svg width="13" height="21" viewBox="0 0 13 21" fill="none" xmlns="http://www.w3.org/2000/svg">
<path d="M2.25 -2.29485e-07L11.4375 -6.31083e-07L11.4375 0.656249C11.4375 1.18945 11.3247 1.67822 11.0991 2.12256C10.8667 2.56689 10.542 2.94971 10.125 3.271L10.125 8.33643C10.5283 8.52783 10.894 8.76709 11.2222 9.0542C11.5435 9.34131 11.8169 9.66601 12.0425 10.0283C12.2681 10.3838 12.4424 10.77 12.5654 11.187C12.6885 11.5972 12.75 12.0244 12.75 12.4687L12.75 13.125L7.5 13.125L7.5 19.6875L6.84375 21L6.1875 19.6875L6.1875 13.125L0.9375 13.125L0.9375 12.4687C0.9375 12.0244 0.999023 11.5972 1.12207 11.187C1.24512 10.77 1.41943 10.3838 1.64502 10.0283C1.8706 9.66602 2.14746 9.34131 2.47559 9.0542C2.79687 8.76709 3.15918 8.52783 3.5625 8.33643L3.5625 3.271C3.14551 2.94971 2.82422 2.56689 2.59863 2.12256C2.36621 1.67822 2.25 1.18945 2.25 0.65625L2.25 -2.29485e-07ZM3.67529 1.3125C3.72998 1.47656 3.79834 1.6167 3.88037 1.73291C3.9624 1.84912 4.05469 1.95508 4.15723 2.05078C4.25293 2.13965 4.3623 2.2251 4.48535 2.30713C4.6084 2.38232 4.73828 2.46094 4.875 2.54297L4.875 9.23877L4.43408 9.39258C3.89404 9.58398 3.43603 9.89502 3.06006 10.3257C2.68408 10.7563 2.43799 11.252 2.32178 11.8125L11.3657 11.8125C11.2495 11.252 11.0034 10.7563 10.6274 10.3257C10.2515 9.89502 9.79346 9.58398 9.25342 9.39258L8.8125 9.23877L8.8125 2.54297C8.94922 2.46094 9.0791 2.38232 9.20215 2.30713C9.32519 2.2251 9.43799 2.13965 9.54053 2.05078C9.63623 1.95508 9.7251 1.84912 9.80713 1.73291C9.88916 1.6167 9.95752 1.47656 10.0122 1.3125L3.67529 1.3125Z" fill="black"/>
</svg>
