<svg width="18" height="15" viewBox="0 0 18 15" fill="none" xmlns="http://www.w3.org/2000/svg">
<path fill-rule="evenodd" clip-rule="evenodd" d="M11.4684 4.7185C11.538 4.64866 11.6208 4.59325 11.7119 4.55544C11.803 4.51764 11.9007 4.49818 11.9993 4.49818C12.098 4.49818 12.1957 4.51764 12.2868 4.55544C12.3779 4.59325 12.4607 4.64866 12.5303 4.7185L17.0301 9.21826C17.0999 9.28792 17.1553 9.37068 17.1931 9.46179C17.2309 9.55291 17.2504 9.65058 17.2504 9.74923C17.2504 9.84787 17.2309 9.94555 17.1931 10.0367C17.1553 10.1278 17.0999 10.2105 17.0301 10.2802L12.5303 14.78C12.3895 14.9208 12.1985 14.9999 11.9993 14.9999C11.8002 14.9999 11.6092 14.9208 11.4684 14.78C11.3276 14.6391 11.2484 14.4481 11.2484 14.249C11.2484 14.0498 11.3276 13.8588 11.4684 13.718L15.4387 9.74923L11.4684 5.78045C11.3985 5.71078 11.3431 5.62802 11.3053 5.53691C11.2675 5.4458 11.248 5.34812 11.248 5.24948C11.248 5.15083 11.2675 5.05315 11.3053 4.96204C11.3431 4.87093 11.3985 4.78817 11.4684 4.7185Z" fill="#B8B8B8"/>
<path fill-rule="evenodd" clip-rule="evenodd" d="M0.749959 0C0.551057 0 0.360303 0.0790134 0.219658 0.219658C0.0790134 0.360303 0 0.551057 0 0.749959V6.74963C0 7.74414 0.395066 8.69791 1.09829 9.40113C1.80151 10.1044 2.75529 10.4994 3.74979 10.4994H16.4991C16.698 10.4994 16.8888 10.4204 17.0294 10.2798C17.17 10.1391 17.2491 9.94837 17.2491 9.74946C17.2491 9.55056 17.17 9.35981 17.0294 9.21916C16.8888 9.07852 16.698 8.99951 16.4991 8.99951H3.74979C3.15309 8.99951 2.58083 8.76247 2.15889 8.34053C1.73696 7.9186 1.49992 7.34633 1.49992 6.74963V0.749959C1.49992 0.551057 1.4209 0.360303 1.28026 0.219658C1.13962 0.0790134 0.94886 0 0.749959 0Z" fill="#B8B8B8"/>
</svg>
