<svg width="24" height="24" viewBox="0 0 24 24" fill="none" xmlns="http://www.w3.org/2000/svg">
<path fill-rule="evenodd" clip-rule="evenodd" d="M23.1232 11.6234C23.1232 14.6658 21.9089 17.5836 19.7474 19.7349C17.5859 21.8862 14.6543 23.0947 11.5975 23.0947C8.54069 23.0947 5.60908 21.8862 3.44758 19.7349C1.28609 17.5836 0.0717773 14.6658 0.0717773 11.6234C0.0717773 8.58104 1.28609 5.66326 3.44758 3.51197C5.60908 1.36068 8.54069 0.1521 11.5975 0.1521C14.6543 0.1521 17.5859 1.36068 19.7474 3.51197C21.9089 5.66326 23.1232 8.58104 23.1232 11.6234ZM11.0875 15.4176C10.9522 15.5522 10.8762 15.7348 10.8762 15.9252C10.8762 16.1156 10.9522 16.2981 11.0875 16.4328C11.2228 16.5674 11.4062 16.643 11.5975 16.643C11.7888 16.643 11.9723 16.5674 12.1075 16.4328L16.4297 12.131C16.4968 12.0644 16.55 11.9853 16.5863 11.8982C16.6226 11.8111 16.6413 11.7177 16.6413 11.6234C16.6413 11.5291 16.6226 11.4357 16.5863 11.3486C16.55 11.2615 16.4968 11.1824 16.4297 11.1158L12.1075 6.81407C12.0405 6.74741 11.961 6.69453 11.8735 6.65846C11.786 6.62238 11.6922 6.60381 11.5975 6.60381C11.5028 6.60381 11.409 6.62238 11.3215 6.65846C11.234 6.69453 11.1545 6.74741 11.0875 6.81407C11.0205 6.88073 10.9674 6.95987 10.9311 7.04696C10.8949 7.13406 10.8762 7.2274 10.8762 7.32168C10.8762 7.41595 10.8949 7.5093 10.9311 7.59639C10.9674 7.68349 11.0205 7.76262 11.0875 7.82928L14.1807 10.9065H7.27536C7.08431 10.9065 6.90108 10.982 6.76599 11.1165C6.63089 11.2509 6.555 11.4333 6.555 11.6234C6.555 11.8136 6.63089 11.9959 6.76599 12.1304C6.90108 12.2648 7.08431 12.3404 7.27536 12.3404H14.1807L11.0875 15.4176Z" fill="#FFED65"/>
</svg>
