<svg width="23" height="22" viewBox="0 0 23 22" fill="none" xmlns="http://www.w3.org/2000/svg">
<path d="M7.69922 0C7.00456 0 6.33496 0.0895182 5.69043 0.268555C5.0459 0.447591 4.44434 0.701823 3.88574 1.03125C3.32715 1.36068 2.81868 1.75814 2.36035 2.22363C1.89486 2.68197 1.4974 3.19043 1.16797 3.74902C0.838542 4.30762 0.58431 4.90918 0.405273 5.55371C0.226237 6.19824 0.136719 6.86784 0.136719 7.5625C0.136719 8.25716 0.226237 8.92676 0.405273 9.57129C0.58431 10.2158 0.838542 10.8174 1.16797 11.376C1.4974 11.9346 1.89486 12.4466 2.36035 12.9121C2.81868 13.3704 3.32715 13.7643 3.88574 14.0938C4.44434 14.4232 5.0459 14.6774 5.69043 14.8564C6.33496 15.0355 7.00456 15.125 7.69922 15.125C8.5944 15.125 9.45378 14.9746 10.2773 14.6738C11.0938 14.373 11.8457 13.9398 12.5332 13.374L20.9658 21.7959C21.1019 21.932 21.263 22 21.4492 22C21.6354 22 21.7965 21.932 21.9326 21.7959C22.0687 21.6598 22.1367 21.4987 22.1367 21.3125C22.1367 21.1263 22.0687 20.9652 21.9326 20.8291L13.5107 12.3965C14.0765 11.709 14.5098 10.957 14.8105 10.1406C15.1113 9.31706 15.2617 8.45768 15.2617 7.5625C15.2617 6.86784 15.1722 6.19824 14.9932 5.55371C14.8141 4.90918 14.5599 4.30762 14.2305 3.74902C13.901 3.19043 13.5072 2.68197 13.0488 2.22363C12.5833 1.75814 12.0713 1.36068 11.5127 1.03125C10.9541 0.701823 10.3525 0.447591 9.70801 0.268555C9.06348 0.0895182 8.39388 0 7.69922 0ZM7.69922 13.75C6.84701 13.75 6.04492 13.5889 5.29297 13.2666C4.54102 12.9372 3.88574 12.4932 3.32715 11.9346C2.76855 11.376 2.32812 10.7207 2.00586 9.96875C1.67643 9.2168 1.51172 8.41471 1.51172 7.5625C1.51172 6.71029 1.67643 5.9082 2.00586 5.15625C2.32812 4.4043 2.76855 3.74902 3.32715 3.19043C3.88574 2.63184 4.54102 2.19141 5.29297 1.86914C6.04492 1.53971 6.84701 1.375 7.69922 1.375C8.55143 1.375 9.35352 1.53971 10.1055 1.86914C10.8574 2.19141 11.5127 2.63184 12.0713 3.19043C12.6299 3.74902 13.0739 4.4043 13.4033 5.15625C13.7256 5.9082 13.8867 6.71029 13.8867 7.5625C13.8867 8.41471 13.7256 9.2168 13.4033 9.96875C13.0739 10.7207 12.6299 11.376 12.0713 11.9346C11.5127 12.4932 10.8574 12.9372 10.1055 13.2666C9.35352 13.5889 8.55143 13.75 7.69922 13.75Z" fill="white"/>
</svg>
