<svg width="100" height="100" viewBox="0 0 100 100" fill="none" xmlns="http://www.w3.org/2000/svg">
<rect width="100" height="100" rx="5" fill="white"/>
<path d="M45.6055 22.8094H53.9547V29.0714H45.6055V22.8094Z" fill="#69E8A3"/>
<path d="M58.1269 14.4603H41.4285C39.1325 14.4603 37.2539 16.3389 37.2539 18.6349C37.2539 20.931 39.1325 22.8095 41.4285 22.8095H58.1269C60.423 22.8095 62.3015 20.931 62.3015 18.6349C62.3015 16.3389 60.423 14.4603 58.1269 14.4603ZM71.0348 36.3916L67.8955 33.6405C67.0659 32.909 66.5595 31.879 66.4868 30.7754C66.414 29.6718 66.7809 28.5842 67.5073 27.7502C68.2388 26.9206 69.2688 26.4142 70.3724 26.3415C71.476 26.2687 72.5636 26.6356 73.3976 27.3619L76.5369 30.113C78.2631 31.6263 78.4385 34.2772 76.9252 36.0034C76.1937 36.8329 75.1636 37.3393 74.06 37.4121C72.9564 37.4848 71.8689 37.118 71.0348 36.3916Z" fill="#1A4178"/>
<path d="M49.7767 79.1667C62.4574 79.1667 72.737 68.887 72.737 56.2063C72.737 43.5257 62.4574 33.246 49.7767 33.246C37.0961 33.246 26.8164 43.5257 26.8164 56.2063C26.8164 68.887 37.0961 79.1667 49.7767 79.1667Z" fill="white"/>
<path d="M49.7769 26.9841C33.6379 26.9841 20.5547 40.0673 20.5547 56.2064C20.5547 72.3454 33.6379 85.4286 49.7769 85.4286C65.9159 85.4286 78.9991 72.3454 78.9991 56.2064C78.9991 40.0673 65.9159 26.9841 49.7769 26.9841ZM49.7769 79.1667C37.1174 79.1667 26.8166 68.8658 26.8166 56.2064C26.8166 43.5469 37.1174 33.246 49.7769 33.246C62.4364 33.246 72.7372 43.5469 72.7372 56.2064C72.7372 68.8658 62.4364 79.1667 49.7769 79.1667Z" fill="#1A4178"/>
<path d="M68.5658 58.2936H47.6928C47.1392 58.2936 46.6083 58.0737 46.2168 57.6823C45.8254 57.2908 45.6055 56.7599 45.6055 56.2063C45.6055 55.6527 45.8254 55.1218 46.2168 54.7304C46.6083 54.3389 47.1392 54.119 47.6928 54.119H68.5658C69.1194 54.119 69.6503 54.3389 70.0417 54.7304C70.4332 55.1218 70.6531 55.6527 70.6531 56.2063C70.6531 56.7599 70.4332 57.2908 70.0417 57.6823C69.6503 58.0737 69.1194 58.2936 68.5658 58.2936Z" fill="#1A4178"/>
<path d="M49.7787 39.5079C50.9315 39.5079 51.866 38.5734 51.866 37.4206C51.866 36.2678 50.9315 35.3333 49.7787 35.3333C48.6259 35.3333 47.6914 36.2678 47.6914 37.4206C47.6914 38.5734 48.6259 39.5079 49.7787 39.5079Z" fill="#1A4178"/>
<path d="M49.7787 77.0794C50.9315 77.0794 51.866 76.1449 51.866 74.9921C51.866 73.8393 50.9315 72.9048 49.7787 72.9048C48.6259 72.9048 47.6914 73.8393 47.6914 74.9921C47.6914 76.1449 48.6259 77.0794 49.7787 77.0794Z" fill="#1A4178"/>
<path d="M37.2553 45.7699C38.4081 45.7699 39.3426 44.8354 39.3426 43.6826C39.3426 42.5298 38.4081 41.5953 37.2553 41.5953C36.1025 41.5953 35.168 42.5298 35.168 43.6826C35.168 44.8354 36.1025 45.7699 37.2553 45.7699Z" fill="#1A4178"/>
<path d="M62.2982 70.8175C63.451 70.8175 64.3855 69.883 64.3855 68.7302C64.3855 67.5774 63.451 66.6429 62.2982 66.6429C61.1455 66.6429 60.2109 67.5774 60.2109 68.7302C60.2109 69.883 61.1455 70.8175 62.2982 70.8175Z" fill="#1A4178"/>
<path d="M30.9936 58.2936C32.1463 58.2936 33.0809 57.3591 33.0809 56.2063C33.0809 55.0535 32.1463 54.119 30.9936 54.119C29.8408 54.119 28.9062 55.0535 28.9062 56.2063C28.9062 57.3591 29.8408 58.2936 30.9936 58.2936Z" fill="#1A4178"/>
<path d="M62.2982 45.7699C63.451 45.7699 64.3855 44.8354 64.3855 43.6826C64.3855 42.5298 63.451 41.5953 62.2982 41.5953C61.1455 41.5953 60.2109 42.5298 60.2109 43.6826C60.2109 44.8354 61.1455 45.7699 62.2982 45.7699Z" fill="#1A4178"/>
<path d="M37.2539 70.8174C36.8407 70.8183 36.4365 70.6964 36.0927 70.4672C35.7489 70.238 35.4809 69.9119 35.3228 69.5301C35.1646 69.1483 35.1235 68.7282 35.2046 68.323C35.2857 67.9178 35.4853 67.5459 35.7782 67.2544L50.3893 52.6432C50.5831 52.4495 50.8131 52.2957 51.0663 52.1908C51.3195 52.086 51.5909 52.032 51.865 52.032C52.1391 52.032 52.4104 52.086 52.6636 52.1908C52.9169 52.2957 53.1469 52.4495 53.3407 52.6432C53.5345 52.837 53.6882 53.0671 53.7931 53.3203C53.898 53.5735 53.952 53.8449 53.952 54.119C53.952 54.393 53.898 54.6644 53.7931 54.9176C53.6882 55.1708 53.5345 55.4009 53.3407 55.5947L38.7296 70.2058C38.536 70.3999 38.306 70.5539 38.0528 70.6588C37.7995 70.7638 37.528 70.8177 37.2539 70.8174V70.8174Z" fill="#69E8A3"/>
</svg>
