<svg width="31" height="19" viewBox="0 0 31 19" fill="none" xmlns="http://www.w3.org/2000/svg">
<path d="M7.60735 7.58936C5.50085 7.58936 3.79785 9.29235 3.79785 11.3929C3.79785 13.4935 5.50085 15.1965 7.60141 15.1965C9.70197 15.1965 11.405 13.4935 11.405 11.3929C11.4109 9.29235 9.70791 7.58936 7.60735 7.58936ZM7.60735 14.1165C6.1061 14.1165 4.88374 12.9001 4.88374 11.3929C4.88374 9.88573 6.10016 8.66931 7.60735 8.66931C9.11453 8.66931 10.325 9.89167 10.325 11.3929C10.325 12.8942 9.10859 14.1165 7.60735 14.1165Z" fill="white"/>
<path d="M7.61895 13.2799C8.66436 13.2799 9.51183 12.4324 9.51183 11.387C9.51183 10.3416 8.66436 9.49414 7.61895 9.49414C6.57354 9.49414 5.72607 10.3416 5.72607 11.387C5.72607 12.4324 6.57354 13.2799 7.61895 13.2799Z" fill="white"/>
<path d="M22.7977 7.58936C20.6971 7.58936 18.9941 9.29235 18.9941 11.3929C18.9941 13.4935 20.6971 15.1965 22.7977 15.1965C24.8983 15.1965 26.6013 13.4935 26.6013 11.3929C26.6013 9.29235 24.8983 7.58936 22.7977 7.58936ZM22.7977 14.1165C21.2965 14.1165 20.0741 12.9001 20.0741 11.3929C20.0741 9.88573 21.2905 8.66931 22.7977 8.66931C24.3049 8.66931 25.5154 9.89167 25.5154 11.3929C25.5154 12.8942 24.299 14.1165 22.7977 14.1165Z" fill="white"/>
<path d="M22.8094 13.2799C23.8548 13.2799 24.7023 12.4324 24.7023 11.387C24.7023 10.3416 23.8548 9.49414 22.8094 9.49414C21.764 9.49414 20.9165 10.3416 20.9165 11.387C20.9165 12.4324 21.764 13.2799 22.8094 13.2799Z" fill="white"/>
<path d="M28.1499 6.005L30.3869 3.78576H25.8535C23.3139 1.7208 19.0949 0 15.1846 0C11.2683 0 7.08495 1.7208 4.54528 3.78576H0L2.23704 6.005C0.854466 7.38164 0 9.28638 0 11.3929C0 15.594 3.406 19 7.60712 19C9.5356 19 11.2979 18.282 12.639 17.0953L15.2142 18.9881L17.7598 17.1368L17.7302 17.0656C19.0771 18.2642 20.8454 18.9941 22.7917 18.9941C26.9928 18.9941 30.3988 15.5881 30.3988 11.3869C30.3929 9.28638 29.5325 7.38164 28.1499 6.005ZM21.8364 3.8451C18.2345 4.29606 15.4101 7.26296 15.1964 10.936C14.9769 7.25703 12.1465 4.2842 8.53279 3.8451C10.3485 2.53966 12.6627 1.89881 15.1846 1.89881C17.7064 1.89881 20.0206 2.53966 21.8364 3.8451ZM7.60712 17.1012C4.45034 17.1012 1.89881 14.5437 1.89881 11.3929C1.89881 8.24204 4.45628 5.68457 7.60712 5.68457C10.758 5.68457 13.3154 8.24204 13.3154 11.3929C13.3095 14.5437 10.758 17.1012 7.60712 17.1012ZM22.7976 17.1012C19.6468 17.1012 17.0893 14.5437 17.0893 11.3929C17.0893 8.24204 19.6468 5.68457 22.7976 5.68457C25.9485 5.68457 28.5059 8.24204 28.5059 11.3929C28.5 14.5437 25.9485 17.1012 22.7976 17.1012Z" fill="white"/>
</svg>
