<svg width="21" height="18" viewBox="0 0 21 18" fill="none" xmlns="http://www.w3.org/2000/svg">
<path d="M20.9937 2.01977C20.2215 2.36218 19.3908 2.59377 18.5197 2.6972C19.4091 2.16432 20.0917 1.32114 20.4139 0.314786C19.5816 0.808486 18.6594 1.16664 17.6788 1.35968C16.8931 0.522931 15.7737 0 14.5341 0C12.1559 0 10.227 1.92887 10.227 4.30711C10.227 4.6447 10.2652 4.9733 10.3391 5.28873C6.75955 5.10917 3.58567 3.39455 1.46119 0.787929C1.09051 1.42393 0.877868 2.16432 0.877868 2.95353C0.877868 4.44748 1.63881 5.76637 2.79389 6.53856C2.08819 6.51639 1.4236 6.32271 0.843177 5.99925C0.842856 6.01756 0.842855 6.03586 0.842855 6.05385C0.842855 8.14076 2.32813 9.8814 4.29812 10.2768C3.93708 10.3757 3.5558 10.4281 3.1636 10.4281C2.88543 10.4281 2.61594 10.4014 2.35319 10.3513C2.90117 12.0621 4.49148 13.3074 6.37667 13.3424C4.90231 14.4978 3.04539 15.1862 1.02691 15.1862C0.680002 15.1862 0.336307 15.1659 0 15.1258C1.9051 16.3483 4.16963 17.0611 6.60184 17.0611C14.5242 17.0611 18.8567 10.4981 18.8567 4.80595C18.8567 4.61933 18.8525 4.43335 18.8441 4.24897C19.6863 3.64188 20.4165 2.88351 20.9937 2.01977Z" fill="white"/>
</svg>
