<svg width="63" height="66" viewBox="0 0 63 66" fill="none" xmlns="http://www.w3.org/2000/svg">
<path d="M34.65 21.9003C37.1563 21.9003 39.5599 22.896 41.3322 24.6682C43.1044 26.4404 44.1 28.844 44.1 31.3503C44.1 32.1858 44.4319 32.987 45.0226 33.5777C45.6133 34.1685 46.4146 34.5003 47.25 34.5003C48.0854 34.5003 48.8866 34.1685 49.4774 33.5777C50.0681 32.987 50.4 32.1858 50.4 31.3503C50.4 27.1732 48.7406 23.1671 45.7869 20.2134C42.8332 17.2597 38.8272 15.6003 34.65 15.6003C33.8146 15.6003 33.0134 15.9322 32.4226 16.523C31.8319 17.1137 31.5 17.9149 31.5 18.7503C31.5 19.5858 31.8319 20.387 32.4226 20.9777C33.0134 21.5685 33.8146 21.9003 34.65 21.9003Z" fill="#69E8A3"/>
<path d="M62.2125 46.8165C62.0392 46.3108 61.7402 45.8575 61.3434 45.4993C60.9466 45.1412 60.4652 44.8898 59.9445 44.769L41.0445 40.4535C40.5315 40.3372 39.9975 40.3512 39.4913 40.4943C38.9851 40.6373 38.5227 40.9049 38.1465 41.2725C37.7055 41.682 37.674 41.7135 35.6265 45.6195C28.8326 42.4889 23.3887 37.0227 20.286 30.216C24.2865 28.2 24.318 28.2 24.7275 27.7275C25.0951 27.3513 25.3627 26.8889 25.5058 26.3827C25.6488 25.8765 25.6628 25.3425 25.5465 24.8295L21.231 6.15C21.1102 5.62929 20.8589 5.14789 20.5007 4.75112C20.1425 4.35435 19.6892 4.05526 19.1835 3.882C18.4479 3.61926 17.6882 3.42935 16.9155 3.315C16.1193 3.1304 15.3069 3.02488 14.49 3C10.647 3 6.96142 4.52662 4.24402 7.24402C1.52662 9.96142 0 13.647 0 17.49C0.0166695 30.3505 5.13288 42.6796 14.2267 51.7733C23.3204 60.8671 35.6495 65.9833 48.51 66C50.4129 66 52.2971 65.6252 54.0551 64.897C55.8131 64.1688 57.4105 63.1015 58.756 61.756C60.1015 60.4105 61.1688 58.8131 61.897 57.0551C62.6252 55.2971 63 53.4129 63 51.51C63.001 50.7082 62.9378 49.9077 62.811 49.116C62.6786 48.3336 62.4784 47.5642 62.2125 46.8165ZM48.51 59.7C37.3178 59.6917 26.5863 55.2419 18.6722 47.3278C10.7581 39.4137 6.30834 28.6822 6.3 17.49C6.3083 15.3204 7.17383 13.2421 8.70796 11.708C10.2421 10.1738 12.3204 9.3083 14.49 9.3H15.5295L18.9 23.916L17.199 24.798C14.49 26.2155 12.348 27.3495 13.482 29.8065C15.3286 35.0342 18.3165 39.7848 22.2287 43.7134C26.1409 47.6419 30.8791 50.6496 36.099 52.518C38.745 53.589 39.7845 51.6045 41.202 48.864L42.1155 47.1315L56.7 50.4705V51.51C56.6917 53.6796 55.8262 55.7579 54.292 57.292C52.7579 58.8262 50.6796 59.6917 48.51 59.7Z" fill="#1A4178"/>
<path d="M50.2417 12.7583C46.1065 8.62312 40.498 6.3 34.65 6.3C33.8146 6.3 33.0134 5.96813 32.4226 5.37739C31.8319 4.78665 31.5 3.98543 31.5 3.15C31.5 2.31457 31.8319 1.51335 32.4226 0.922613C33.0134 0.331874 33.8146 0 34.65 0C42.1689 0 49.3798 2.98687 54.6965 8.30352C60.0131 13.6202 63 20.8311 63 28.35C63 29.1854 62.6681 29.9866 62.0774 30.5774C61.4866 31.1681 60.6854 31.5 59.85 31.5C59.0146 31.5 58.2134 31.1681 57.6226 30.5774C57.0319 29.9866 56.7 29.1854 56.7 28.35C56.7 22.502 54.3769 16.8935 50.2417 12.7583Z" fill="#69E8A3"/>
</svg>
