<svg width="70" height="70" viewBox="0 0 70 70" fill="none" xmlns="http://www.w3.org/2000/svg">
<path d="M44.0517 18.1035H40.431C39.9508 18.1035 39.4904 18.3085 39.1509 18.6733C38.8114 19.0381 38.6206 19.5329 38.6206 20.0488V53.1035H45.862V20.0488C45.862 19.5329 45.6713 19.0381 45.3318 18.6733C44.9923 18.3085 44.5318 18.1035 44.0517 18.1035ZM33.1896 29.7754H29.5689C29.0888 29.7754 28.6283 29.9803 28.2888 30.3451C27.9493 30.71 27.7586 31.2048 27.7586 31.7207V53.1035H34.9999V31.7207C34.9999 31.2048 34.8092 30.71 34.4697 30.3451C34.1302 29.9803 33.6697 29.7754 33.1896 29.7754ZM22.3275 41.4472H18.7068C18.2267 41.4472 17.7662 41.6522 17.4267 42.017C17.0872 42.3818 16.8965 42.8766 16.8965 43.3925V53.1035H24.1379V43.3925C24.1379 42.8766 23.9471 42.3818 23.6076 42.017C23.2681 41.6522 22.8077 41.4472 22.3275 41.4472Z" fill="#69E8A3"/>
<path d="M68.7012 68.6999C67.8353 69.5666 66.7985 70 65.5908 70C64.3831 70 63.3464 69.5666 62.4805 68.6999L48.9453 55.1515C43.4766 59.2115 37.3698 61.2414 30.625 61.2414C26.4779 61.2414 22.513 60.4317 18.7305 58.8123C14.9479 57.1929 11.6895 55.0147 8.95508 52.2776C6.2207 49.5406 4.0446 46.2903 2.42676 42.5269C0.808919 38.7634 0 34.7947 0 30.6207C0 26.4467 0.808919 22.4666 2.42676 18.6804C4.0446 14.8941 6.2207 11.6439 8.95508 8.92962C11.6895 6.21538 14.9479 4.04855 18.7305 2.42913C22.513 0.80971 26.4779 0 30.625 0C34.7721 0 38.737 0.80971 42.5195 2.42913C46.3021 4.04855 49.5605 6.21538 52.2949 8.92962C55.0293 11.6439 57.2054 14.8941 58.8232 18.6804C60.4411 22.4666 61.25 26.4353 61.25 30.5865C61.25 37.3835 59.222 43.4963 55.166 48.9247L68.7012 62.4731C69.5671 63.3399 70 64.3776 70 65.5865C70 66.7954 69.5671 67.8332 68.7012 68.6999ZM30.625 8.75855C26.6602 8.75855 23.0029 9.72792 19.6533 11.6667C16.3037 13.6054 13.6491 16.2626 11.6895 19.6383C9.72982 23.014 8.75 26.6748 8.75 30.6207C8.75 34.5666 9.72982 38.2274 11.6895 41.6031C13.6491 44.9788 16.3037 47.636 19.6533 49.5748C23.0029 51.5135 26.6602 52.4829 30.625 52.4829C34.5898 52.4829 38.2471 51.5135 41.5967 49.5748C44.9463 47.636 47.6009 44.9788 49.5605 41.6031C51.5202 38.2274 52.5 34.5666 52.5 30.6207C52.5 26.6748 51.5202 23.014 49.5605 19.6383C47.6009 16.2626 44.9463 13.6054 41.5967 11.6667C38.2471 9.72792 34.5898 8.75855 30.625 8.75855Z" fill="#1A4178"/>
</svg>
