<svg width="68" height="68" viewBox="0 0 68 68" fill="none" xmlns="http://www.w3.org/2000/svg">
<path d="M5.16456 2.55C5.16456 1.8737 4.8925 1.2251 4.40823 0.746877C3.92395 0.26866 3.26714 0 2.58228 0C1.89742 0 1.2406 0.26866 0.756332 0.746877C0.272061 1.2251 1.02053e-08 1.8737 0 2.55V65.45C0 66.8576 1.15686 68 2.58228 68H65.4177C66.1026 68 66.7594 67.7313 67.2437 67.2531C67.7279 66.7749 68 66.1263 68 65.45C68 64.7737 67.7279 64.1251 67.2437 63.6469C66.7594 63.1687 66.1026 62.9 65.4177 62.9H5.16456V2.55Z" fill="#1A4178"/>
<path d="M39.6154 18.0353C39.6154 17.71 39.3518 17.446 39.0265 17.446H26.1824C26.0261 17.4459 25.8764 17.3837 25.7659 17.2732C25.6555 17.1627 25.5935 17.0129 25.5935 16.8566V4.05964H25.5761C25.5806 4.0303 25.5935 4.00408 25.5935 3.97386C25.5935 3.64808 25.3295 3.38452 25.0041 3.38452C24.9899 3.38452 24.9784 3.39163 24.9646 3.39252V3.38852C24.9121 3.38808 24.8601 3.38452 24.8077 3.38452C16.6298 3.38452 10 10.0144 10 18.1922C10 26.3701 16.6298 32.9999 24.8077 32.9999C32.9855 32.9999 39.6154 26.3701 39.6154 18.1922C39.6154 18.1451 39.6132 18.0984 39.6123 18.0509C39.6123 18.0451 39.6154 18.0407 39.6154 18.0353Z" fill="#1A4178"/>
<path d="M25.1043 0C24.7073 0 24.3848 0.322537 24.3848 0.720007C24.3848 0.75693 24.4005 0.788967 24.4059 0.824804H24.3848V17.8954C24.3848 18.2928 24.7073 18.6154 25.1043 18.6154H42.1753V18.5942C42.2111 18.5996 42.2432 18.6154 42.2806 18.6154C42.6776 18.6154 43.0002 18.2928 43.0002 17.8954C42.8981 8.05637 34.9439 0.102625 25.1043 0Z" fill="#69E8A3"/>
<path d="M62.125 24H58.375C57.8777 24 57.4008 24.1991 57.0492 24.5535C56.6975 24.9079 56.5 25.3885 56.5 25.8897V58H64V25.8897C64 25.3885 63.8025 24.9079 63.4508 24.5535C63.0992 24.1991 62.6223 24 62.125 24ZM50.875 35.3384H47.125C46.6277 35.3384 46.1508 35.5375 45.7992 35.8919C45.4475 36.2463 45.25 36.7269 45.25 37.2281V58H52.75V37.2281C52.75 36.7269 52.5525 36.2463 52.2008 35.8919C51.8492 35.5375 51.3723 35.3384 50.875 35.3384ZM39.625 46.6767H35.875C35.3777 46.6767 34.9008 46.8758 34.5492 47.2302C34.1975 47.5846 34 48.0653 34 48.5665V58H41.5V48.5665C41.5 48.0653 41.3025 47.5846 40.9508 47.2302C40.5992 46.8758 40.1223 46.6767 39.625 46.6767Z" fill="#1A4178"/>
<rect x="10" y="39" width="17" height="5" rx="2" fill="#69E8A3"/>
<rect x="10" y="46" width="11" height="5" rx="2" fill="#69E8A3"/>
<rect x="23" y="46" width="4" height="5" rx="2" fill="#69E8A3"/>
</svg>
