<svg width="85" height="71" viewBox="0 0 85 71" fill="none" xmlns="http://www.w3.org/2000/svg">
<path d="M81.25 32H63.5417C62.6024 32 61.7015 32.3731 61.0373 33.0373C60.3731 33.7015 60 34.6024 60 35.5417V67.4167C60 68.356 60.3731 69.2568 61.0373 69.921C61.7015 70.5852 62.6024 70.9583 63.5417 70.9583H81.25C82.1893 70.9583 83.0901 70.5852 83.7543 69.921C84.4185 69.2568 84.7917 68.356 84.7917 67.4167V35.5417C84.7917 34.6024 84.4185 33.7015 83.7543 33.0373C83.0901 32.3731 82.1893 32 81.25 32ZM81.25 63.875H63.5417V39.0833H81.25V63.875Z" fill="#69E8A3"/>
<path d="M70.8333 0H7.08333C3.15208 0 0 3.15208 0 7.08333V49.5833C0 51.462 0.746278 53.2636 2.07466 54.592C3.40304 55.9204 5.20472 56.6667 7.08333 56.6667H31.875V63.75H24.7917V70.8333H53.125V63.75H46.0417V56.6667H53.125V49.5833H7.08333V7.08333H70.8333V24.7917H77.9167V7.08333C77.9167 5.20472 77.1704 3.40304 75.842 2.07466C74.5136 0.746277 72.712 0 70.8333 0Z" fill="#1A4178"/>
</svg>
